<?xml version="1.0" standalone="no"?>
<!DOCTYPE svg PUBLIC "-//W3C//DTD SVG 1.1//EN" "http://www.w3.org/Graphics/SVG/1.1/DTD/svg11.dtd" >
<svg xmlns="http://www.w3.org/2000/svg" xmlns:xlink="http://www.w3.org/1999/xlink" version="1.1">
<metadata>
Created by FontForge 20150102 at Sun Mar 15 23:17:16 2015
 By uniteet7
Copyright (c) 1992 Image Club Graphics, Inc.
</metadata>
<defs>
<font id="FrizQuadrataRegular" horiz-adv-x="976" >
  <font-face 
    font-family="FrizQuadrataRegular"
    font-weight="5"
    font-stretch="normal"
    units-per-em="1081"
    panose-1="0 0 0 0 0 0 0 0 0 0"
    ascent="864"
    descent="-217"
    x-height="570"
    cap-height="818"
    bbox="-108 -310 1309 1099"
    underline-thickness="20"
    underline-position="-156"
    unicode-range="U+0020-25CA"
  />
<missing-glyph horiz-adv-x="818" 
d="M51 0v818h716v-818h-716zM716 51v716h-614v-716h614z" />
    <glyph glyph-name=".notdef" horiz-adv-x="818" 
d="M51 0v818h716v-818h-716zM716 51v716h-614v-716h614z" />
    <glyph glyph-name=".null" unicode="&#xd7;" horiz-adv-x="0" 
 />
    <glyph glyph-name=".null" unicode="&#x141;" horiz-adv-x="0" 
 />
    <glyph glyph-name=".null" unicode="&#xfd;" horiz-adv-x="0" 
 />
    <glyph glyph-name="nonmarkingreturn" horiz-adv-x="324" 
 />
    <glyph glyph-name="space" unicode=" " horiz-adv-x="324" 
 />
    <glyph glyph-name="exclam" unicode="!" horiz-adv-x="260" 
d="M225 810l-29 -602h-88l-23 561q0 24 -13 40.5t-32 23.5l165 1h5q9 0 14 -6q3 -3 1 -18zM156 136q36 0 56 -22t20 -53t-21 -55t-58 -24q-36 0 -56 22t-20 53t21 55t58 24z" />
    <glyph glyph-name="quotedbl" unicode="&#x22;" horiz-adv-x="281" 
d="M241 843l-9 -249h-37l-9 249h55zM98 843l-9 -249h-37l-9 249h55z" />
    <glyph glyph-name="numbersign" unicode="#" horiz-adv-x="669" 
d="M631 476h-147l-17 -114h135v-75h-146l-40 -287h-79l42 287h-117l-42 -287h-76l41 287h-148v75h159l16 114h-148v75h157l40 267h76l-37 -267h115l42 267h75l-39 -267h138v-75zM407 476h-118l-16 -115h116z" />
    <glyph glyph-name="dollar" unicode="$" horiz-adv-x="614" 
d="M566 309q12 -42 12 -82q0 -52 -22 -90q-32 -58 -94 -94q-51 -30 -121 -44l-8 -1v-108h-68v109l-89 9l-135 9v151q19 -18 46.5 -35.5t58.5 -29.5q58 -21 119 -21v317l-20 7q-66 27 -108 54q-94 60 -102 128q-3 23 -3 40q0 24 7 45.5t26 48.5q30 43 87.5 72t104.5 29h10v98
h67v-98q17 0 34 -2.5t50 -8.5q14 -3 33.5 -8t40.5 -12v-134q-8 10 -29 28q-27 23 -49 34q-40 19 -80 23v-242l19 -11q52 -29 104 -57q91 -60 109 -124zM266 526v216h-8q-40 0 -75.5 -31.5t-35.5 -75.5q0 -40 42 -69q9 -7 68 -35zM464 214q0 52 -36 90q-29 31 -90 58l-5 2
v-282h6q44 0 84.5 44.5t40.5 87.5z" />
    <glyph glyph-name="percent" unicode="%" horiz-adv-x="1006" 
d="M296 334q-11 -4 -28 -7t-27 -3q-14 0 -22 1t-23 4q-74 16 -117 92q-39 69 -39 163q0 76 28 138.5t83 93.5q40 23 88 23q19 0 28 -1t27 -7q67 -20 104 -90q34 -64 34 -149q0 -89 -34 -158q-37 -75 -102 -100zM747 818l-405 -818h-72l403 818h74zM836 -9q-27 -10 -56 -10
q-13 0 -21 1t-23 4q-74 17 -117 93q-39 70 -39 163q0 76 28 138.5t83 93.5q40 23 88 23q19 0 28 -1t27 -7q67 -20 104 -90q34 -64 34 -150q0 -88 -34 -157q-37 -76 -102 -101zM250 386q50 0 80 58q27 52 27 129q0 83 -30 141q-34 66 -90 66l-11 -1q-51 0 -79 -56.5
t-28 -135.5q0 -81 29.5 -141t81.5 -60h20zM790 44q50 0 80 58q27 52 27 129q0 83 -30 141q-34 66 -90 66l-11 -1q-51 0 -79 -56.5t-28 -135.5q0 -81 29.5 -141t81.5 -60h20z" />
    <glyph glyph-name="ampersand" unicode="&#x26;" horiz-adv-x="1007" 
d="M982 0h-168h-11q-23 0 -46 5t-50 23q-48 32 -81 57q-27 21 -47 41l-3 3l-18 -27q-40 -60 -106 -91q-59 -28 -129 -28h-14h-11q-8 2 -12 2q-106 13 -165 59q-71 55 -84 160q-1 6 -1 12v12q0 73 55 148q39 54 99 100l15 12l-34 36q-31 32 -47.5 68.5t-16.5 75.5
q0 46 25.5 85t72 61t96.5 22q51 0 93.5 -23t65.5 -70q20 -39 20 -79q0 -46 -25.5 -88.5t-70.5 -83.5l-13 -12l6 -7l194 -184q38 -36 79.5 -71.5t80.5 -64.5q66 -49 122 -83t129 -70zM353 736q-26 18 -59 18q-61 0 -78 -48q-4 -11 -4 -23q0 -26 22 -57q15 -21 55 -61l12 -12
l16 13q30 23 46.5 53.5t16.5 59.5q0 37 -27 57zM527 173l-246 241l-28 -23q-39 -33 -62 -77.5t-23 -91.5q0 -57 36 -99q50 -59 130 -59q49 0 95.5 23.5t85.5 70.5z" />
    <glyph glyph-name="quotesingle" unicode="'" horiz-adv-x="139" 
d="M98 843l-9 -249h-37l-9 249h55z" />
    <glyph glyph-name="parenleft" unicode="(" horiz-adv-x="322" 
d="M290 818q-72 -102 -114.5 -232t-42.5 -254t36 -250q40 -140 119 -253h-81q-77 98 -122 225q-48 135 -48 270q0 142 52 280q45 119 119 214h82z" />
    <glyph glyph-name="parenright" unicode=")" horiz-adv-x="325" 
d="M290 324q0 -134 -47 -265.5t-124 -229.5h-81q77 110 118 253q37 128 37 250q0 126 -41.5 253.5t-114.5 232.5h81q73 -94 119 -214q53 -139 53 -280z" />
    <glyph glyph-name="asterisk" unicode="*" horiz-adv-x="417" 
d="M386 657q-23 3 -39 3q-12 0 -26 -2t-36 -8.5t-28 -10.5q9 -18 20 -31q8 -9 26 -26q12 -11 25 -19t27 -13l-85 -62q-4 26 -4 28q-3 11 -10 27q-10 19 -24 40q-9 14 -18 25q-15 -14 -24 -27.5t-19 -36.5q-13 -29 -13 -57l-85 62q16 8 26 13.5t21 16.5q26 25 28 27
q12 13 23 32q-4 2 -32 10t-38.5 9.5t-15.5 1.5h-8q-17 0 -40 -6l32 99q10 -10 20 -19t26 -17t35 -16t36 -12q1 4 0 29t-5 45t-7.5 28t-16.5 28h105q-12 -22 -15 -30.5t-5 -21t-3 -27.5t-1 -41v-8v-2q21 4 36 11q8 3 34 18q16 8 25 16q2 2 20 21z" />
    <glyph glyph-name="plus" unicode="+" horiz-adv-x="649" 
d="M611 256h-256v-256h-66v256h-252v72h251v257h70v-258h253v-71z" />
    <glyph glyph-name="comma" unicode="," horiz-adv-x="234" 
d="M181 99q13 -25 13 -53q0 -30 -14 -62t-39 -65q-13 -17 -29 -33t-24.5 -19t-22.5 -3q-22 0 -36 7l12 11q39 35 60.5 66.5t12.5 42.5q-21 5 -38 15q-35 20 -35 56q0 34 23 53.5t55 19.5q20 0 36 -8.5t26 -27.5z" />
    <glyph glyph-name="hyphen" unicode="-" horiz-adv-x="480" 
d="M449 387l-78 -88q-9 -10 -19 -15.5t-25 -5.5h-19h-57t-63 1q-31 0 -58 -0.5t-40 -3.5l-50 -12l78 88q6 7 17 13t21 6h15q28 0 60.5 -0.5t70.5 -0.5h16h13h11q17 0 30.5 0.5t27.5 3.5t27 7t22 7z" />
    <glyph glyph-name="period" unicode="." horiz-adv-x="235" 
d="M119 144q36 0 58 -24q19 -21 19 -53t-21 -56t-59 -24q-37 0 -57 22.5t-20 54.5t21 56t59 24z" />
    <glyph glyph-name="slash" unicode="/" horiz-adv-x="477" 
d="M441 818l-388 -991h-91l387 991h92z" />
    <glyph glyph-name="zero" unicode="0" horiz-adv-x="732" 
d="M486 811q101 -40 158 -156q53 -108 53 -245q0 -142 -57 -255q-62 -122 -171 -163q-22 -8 -48 -12.5t-52 -4.5q-42 0 -74 10q-123 39 -192 163q-63 114 -63 260q0 125 48.5 232t136.5 159q60 34 141 34q64 0 120 -22zM391 74q82 9 131 109q45 93 45 220q0 135 -49 227
q-55 104 -151 104l-16 -1q-87 0 -137 -99q-45 -89 -45 -221q0 -137 47 -232q53 -107 142 -107h33z" />
    <glyph glyph-name="one" unicode="1" horiz-adv-x="388" 
d="M357 0h-257q8 3 22 13t22 19q15 17 20.5 44t5.5 62v512h-148q48 17 81.5 36t74 51.5t67.5 64t53 77.5v-742q0 -34 4.5 -60t15.5 -42q15 -21 39 -35z" />
    <glyph glyph-name="two" unicode="2" horiz-adv-x="712" 
d="M681 153l-70 -153h-578l377 543q13 19 19.5 38t6.5 41q0 67 -60 102q-36 20 -86 20q-48 0 -98.5 -18t-91.5 -46l-27 -20l79 155q9 7 59 16t100 9t94 -9t78 -30q50 -31 74 -74q21 -37 21 -79q0 -33 -11.5 -65.5t-28.5 -56.5l-283 -420q25 -5 85.5 -9.5t97.5 -4.5
q46 0 79 6.5t69 13.5q29 8 95 41z" />
    <glyph glyph-name="three" unicode="3" horiz-adv-x="660" 
d="M551 80q-47 -47 -136.5 -72.5t-190.5 -25.5q-50 0 -103 8l-26 4l-62 149l13 -7q55 -29 109.5 -43.5t105.5 -14.5q97 0 160 50t63 134q0 77 -69 114q-55 29 -136 29q-28 0 -54 -4t-39 -9v108q18 -10 66 -10q70 0 117 26q62 35 62 106q0 54 -43.5 87t-113.5 33
q-42 0 -84.5 -12.5t-88.5 -39.5l-20 -12l48 130q14 11 60 20.5t101 9.5q36 0 63.5 -3.5t60.5 -13.5q67 -21 109.5 -69.5t42.5 -107.5q0 -28 -10.5 -56.5t-32.5 -55.5q-11 -13 -35.5 -27.5t-53.5 -26.5l-19 -8l16 -5q37 -12 60.5 -21.5t49.5 -27.5q38 -26 61 -71t23 -98
q0 -45 -18 -87.5t-56 -79.5z" />
    <glyph glyph-name="four" unicode="4" horiz-adv-x="789" 
d="M752 318l-60 -150h-97v-61q0 -28 7 -49t20 -35.5t24 -22.5h-242q27 6 43 26q12 15 16 34t4 35v73h-430l383 650h175v-553l16 1q20 0 31 2t35.5 10t39 16t35.5 24zM467 266v460l-262 -454z" />
    <glyph glyph-name="five" unicode="5" horiz-adv-x="653" 
d="M552 102q-59 -66 -148 -96q-73 -25 -165 -25q-38 0 -67.5 3.5t-69.5 11.5l-13 3l-56 129l8 -4q90 -45 196 -45q100 0 164 42q71 47 71 132q0 24 -6 51q-12 53 -64.5 85.5t-122.5 39.5q-7 1 -15 1h-13q-54 0 -105 -14t-75 -30l25 432h441v-151q-14 14 -25 22
q-24 16 -68.5 22.5t-100.5 6.5q-20 0 -60 -1t-58 -1l-21 -1l-10 -206l23 5q53 10 102 10q77 0 137 -26q49 -21 90 -62q32 -33 49.5 -77t17.5 -94q0 -96 -61 -163z" />
    <glyph glyph-name="six" unicode="6" horiz-adv-x="716" 
d="M676 278q0 -140 -94 -224q-87 -78 -214 -78q-147 0 -241 100q-89 95 -89 229q0 217 167 369q151 137 357 160l36 4l-58 -76l-16 -4q-164 -45 -266 -170q-98 -120 -98 -258q0 -124 68 -202q63 -72 150 -72q71 0 123.5 56.5t52.5 141.5q0 82 -49 142q-53 65 -135 65
q-34 0 -70.5 -10.5t-76.5 -33.5l80 100l16 5q54 17 101 17q112 0 184 -73t72 -188z" />
    <glyph glyph-name="seven" unicode="7" horiz-adv-x="661" 
d="M629 818l-292 -680q-13 -33 -16 -41q-8 -23 -8 -39q0 -7 2.5 -21t13 -22t28.5 -15h-221l313 715q-14 4 -77 13t-115 9q-31 0 -58 -5q-62 -12 -74 -16q-31 -11 -92 -49l59 151h537z" />
    <glyph glyph-name="eight" unicode="8" horiz-adv-x="741" 
d="M701 206q0 -101 -107 -167q-98 -60 -224 -60q-132 0 -227 59q-107 66 -107 177q0 69 46 124q41 49 116 83l23 10l-19 11q-66 38 -98 78q-38 48 -38 109q0 88 80 149t187 61q140 0 225 -47q97 -54 97 -159q0 -58 -39 -103q-29 -34 -95 -72l-18 -10l18 -9
q95 -45 137.5 -97.5t42.5 -136.5zM527 624q0 63 -51 98.5t-126 35.5q-62 0 -106 -21q-53 -26 -53 -73q0 -69 67 -116q51 -36 145 -59l26 -7l19 13q41 28 60 57.5t19 71.5zM574 206q0 71 -81 118q-58 34 -174 63l-24 6l-26 -13q-53 -27 -78.5 -65t-25.5 -94q0 -80 63 -117
t183 -37q64 0 113.5 44.5t49.5 94.5z" />
    <glyph glyph-name="nine" unicode="9" horiz-adv-x="713" 
d="M678 516q0 -217 -167 -368q-151 -137 -358 -161l-36 -4l58 76l17 4q156 42 259 156.5t103 239.5q0 138 -61.5 222t-148.5 84q-70 0 -126.5 -59.5t-56.5 -137.5q0 -83 50 -143q54 -65 139 -65q32 0 67 10.5t75 33.5l-80 -100q-24 -8 -38 -11q-46 -12 -72 -12
q-108 0 -188 85q-75 80 -75 178q0 139 91 222q86 78 214 78q148 0 244 -100q90 -94 90 -228z" />
    <glyph glyph-name="colon" unicode=":" horiz-adv-x="231" 
d="M127 468q36 0 56 -22t20 -53t-21 -55t-58 -24q-36 0 -56 22t-20 53t21 55t58 24zM120 137q36 0 56 -22t20 -54q0 -31 -21 -55t-58 -24q-36 0 -56 22t-20 54q0 31 21 55t58 24z" />
    <glyph glyph-name="semicolon" unicode=";" horiz-adv-x="221" 
d="M113 463q36 0 56 -22t20 -53t-21 -55t-58 -24q-36 0 -56 22t-20 53t21 55t58 24zM175 92q13 -25 13 -53q0 -30 -14 -62t-39 -65q-13 -17 -29 -33t-25 -19q-3 -1 -5 -1q-6 -1 -14 -1q-24 0 -39 7l12 11q39 35 60.5 66.5t12.5 42.5q-21 4 -38 14q-35 20 -35 57q0 32 23 52
t54 20q21 0 37 -8.5t26 -27.5z" />
    <glyph glyph-name="less" unicode="&#x3c;" horiz-adv-x="697" 
d="M655 527l-537 -246l534 -242v-71l-615 282v64l618 285v-72z" />
    <glyph glyph-name="equal" unicode="=" horiz-adv-x="665" 
d="M617 340h-579v71h579v-71zM616 168h-579v70h579v-70z" />
    <glyph glyph-name="greater" unicode="&#x3e;" horiz-adv-x="689" 
d="M655 250l-615 -282v71l534 242l-537 246v72l618 -285v-64z" />
    <glyph glyph-name="question" unicode="?" horiz-adv-x="535" 
d="M496 675q9 -33 9 -62q0 -59 -36 -116q-30 -47 -95 -107q-39 -35 -77 -69q-36 -38 -36 -82q0 -16 2 -25l4 -19l-95 -11l-4 24q-3 17 -3 31q0 55 39 106q25 33 86 84q41 34 65.5 75.5t24.5 84.5q0 34 -15 63q-24 46 -66.5 70.5t-97.5 24.5q-72 0 -147 -42l-17 -10l70 116
l13 5q52 20 113 20q92 0 163 -40q78 -44 100 -121zM227 138q36 0 56 -22t20 -54q0 -31 -21 -55t-58 -24q-36 0 -56 22t-20 54q0 31 21 55t58 24z" />
    <glyph glyph-name="at" unicode="@" horiz-adv-x="843" 
d="M813 471q0 -122 -77 -216.5t-183 -94.5q-45 0 -67 44q-7 14 -13 45l-32 -37q-41 -48 -104 -48q-64 0 -105 50.5t-41 119.5q0 100 85 175q77 68 156 68q32 0 54 -11.5t31 -37.5l10 -31l22 67l93 2l-84 -311q-4 -12 -4 -30q0 -17 4.5 -26t16.5 -9q66 0 122.5 88t56.5 185
q0 125 -98 200q-89 68 -217 68q-139 0 -237 -98t-98 -237q0 -144 100.5 -247.5t242.5 -103.5q105 0 179 40q55 29 88 75q11 20 23 41h71q-16 -27 -31 -54q-46 -63 -113 -102q-95 -55 -219 -55q-164 0 -282 118t-118 283q0 164 115 280t279 116q149 0 258 -86
q116 -92 116 -230zM507 454q0 42 -16.5 68.5t-47.5 26.5q-53 0 -104 -89.5t-51 -174.5q0 -38 17.5 -63.5t56.5 -25.5q54 0 102 98q43 88 43 160z" />
    <glyph glyph-name="A" unicode="A" horiz-adv-x="960" 
d="M927 0h-270q21 2 45 28q8 9 8 22q0 12 -7 31l-90 225h-309l-75 -204q-8 -22 -8 -45q0 -24 11 -35q19 -18 39 -22h-239q15 7 26 14.5t22 17.5q16 16 27 36q7 13 19 42l249 621q4 10 6 17.5t2 16.5q0 7 -3 18q-9 29 -42 35h202l272 -671q7 -20 16 -40.5t24.5 -41.5
t32.5 -36t42 -29zM584 394l-122 310l-124 -310h246z" />
    <glyph glyph-name="B" unicode="B" horiz-adv-x="719" 
d="M682 256q0 -101 -88 -176q-94 -80 -236 -80h-317q15 6 23.5 12t16.5 17q12 17 16 34t4 41v22v561v14v12q0 25 -3.5 41.5t-13 30t-20.5 20.5t-27 13h319q107 0 177 -49t70 -120q0 -76 -30 -112q-15 -18 -73 -51l-14 -8l15 -6q92 -37 131 -77q50 -52 50 -139zM466 630
q-10 63 -55 92q-35 23 -88 23q-38 0 -60 -10l-33 -14v-231l49 -1q69 0 123 28q66 34 66 94q0 5 -2 19zM542 251q0 80 -66 124q-58 39 -142 39q-22 0 -45 -3l-58 -9v-296l20 -9q48 -22 107 -22q77 0 127 41q57 47 57 135z" />
    <glyph glyph-name="C" unicode="C" horiz-adv-x="779" 
d="M744 159l-63 -144l-11 -5q-31 -14 -80 -23t-106 -9q-162 0 -293 100q-159 121 -159 325q0 186 98 300q115 133 344 133q48 0 91.5 -5.5t93.5 -20.5l24 -7v-143q-33 30 -97 51.5t-134 21.5q-130 0 -213 -115q-72 -100 -72 -214q0 -141 99 -236q93 -90 215 -90
q109 0 227 62z" />
    <glyph glyph-name="D" unicode="D" horiz-adv-x="843" 
d="M810 435q0 -192 -122 -311q-127 -124 -344 -124h-304q31 17 47 46q10 19 13.5 34t3.5 30q-1 14 -1 20v559v14q0 34 -3 50.5t-16 34.5q-8 13 -16 18.5t-25 11.5h333q166 0 287 -86q147 -105 147 -297zM671 410q0 171 -108 257q-88 70 -221 70q-49 0 -95 -11l-18 -5v-615
l45 -5q27 -3 54 -3q145 0 236 70q107 83 107 242z" />
    <glyph glyph-name="E" unicode="E" horiz-adv-x="653" 
d="M621 171l-59 -171l-529 -1q10 5 21 10q18 10 27 28q13 24 15.5 49.5t2.5 67.5l-1 533v30q0 18 -2.5 31.5t-11.5 29t-19 23.5t-30 17h430l21 3l17 7v-152l-25 23q-20 17 -59.5 24.5t-85.5 7.5q-29 0 -58 -3t-40 -5l-10 -2v-231h158q25 0 33 3l16 6v-139q-5 9 -12.5 16.5
t-12.5 10.5q-17 9 -45.5 12t-53.5 3h-83v-296q6 -2 67.5 -9t109.5 -7q60 0 92 11q51 18 71 29t56 41z" />
    <glyph glyph-name="F" unicode="F" horiz-adv-x="537" 
d="M501 676l-25 24q-20 17 -58 24t-88 7q-34 0 -58.5 -2t-39.5 -5l-9 -2v-231h157h14h10q7 2 9 2l17 6v-139q-5 8 -10 14q-8 9 -16 14q-16 9 -40.5 11t-54.5 2l-87 1v-251q0 -13 -0.5 -25t-0.5 -24q0 -21 3 -37.5t12 -27.5q13 -17 20 -23t23 -14h-253q19 8 28 14q13 9 21 24
q14 25 17.5 51t3.5 65v534v12q0 25 -2.5 40.5t-11 32t-18.5 26t-30 19.5h429q15 0 20 2q10 1 18 7v-151z" />
    <glyph glyph-name="G" unicode="G" horiz-adv-x="877" 
d="M842 407q-6 -13 -7.5 -20.5t-1.5 -19.5v-12v-314q0 -12 2 -19l4 -16l-34 -6q-62 -11 -128.5 -18.5t-136.5 -7.5q-200 0 -341 102q-161 116 -161 316q0 199 127 313q136 122 394 122q42 0 82 -5q11 -1 88 -14l18 -3v-145q-43 36 -94.5 57t-104.5 21q-173 0 -271 -96
t-98 -254q0 -138 107 -234t253 -96q75 0 155 20l12 3v220q0 23 -3 37.5t-14 31.5q-17 25 -43 37h196z" />
    <glyph glyph-name="H" unicode="H" horiz-adv-x="929" 
d="M876 0h-248q18 9 26.5 16t16 22t12 33t4.5 43v18l-1 270h-451v-273v-18q0 -19 3.5 -38.5t14.5 -38.5q7 -13 16.5 -20t27.5 -14h-246q9 5 18 11q16 10 23 25t11.5 34.5t4.5 43.5v18v561v13q0 24 -3.5 41.5t-13 33t-18.5 22.5t-25 15h249q-16 -7 -26 -15t-18 -21
q-11 -17 -14.5 -36t-3.5 -44v-13l-1 -199h452l1 203v13q0 24 -3.5 41.5t-15.5 35.5q-8 13 -17 20t-25 15h249q-17 -8 -26 -15t-18 -21q-12 -18 -14.5 -34t-2.5 -46v-13v-560v-21q0 -22 3 -38.5t14 -35.5q8 -13 17 -19.5t28 -14.5z" />
    <glyph glyph-name="I" unicode="I" horiz-adv-x="403" 
d="M337 0h-250q13 7 20 11q16 10 23.5 25.5t12 35t4.5 43.5v18v560v13q0 28 -3 43t-16 36t-41 33h249q-16 -7 -26 -15t-17.5 -21t-12.5 -41.5t-5 -51.5v-559v-18q0 -24 3 -39.5t14 -37.5q7 -13 17.5 -20.5t27.5 -14.5z" />
    <glyph glyph-name="J" unicode="J" horiz-adv-x="357" 
d="M306 818q-16 -9 -26 -17.5t-18.5 -22.5t-12 -36t-3.5 -49v-23v-739q0 -36 -15 -73.5t-38 -65.5q-32 -37 -104 -60q-60 -19 -89 -16q69 51 98 128q10 28 14.5 56t4.5 62v705v22v15q0 28 -2.5 44t-11.5 31t-18.5 23t-27.5 16h249z" />
    <glyph glyph-name="K" unicode="K" horiz-adv-x="814" 
d="M290 0h-247q16 9 25.5 17t16 22t11 35t4.5 46v13v561v13q0 28 -3 43t-15 34q-8 13 -16.5 20t-24.5 14h249q-16 -6 -26 -13.5t-19 -21.5q-12 -18 -14.5 -34t-2.5 -46v-13v-560q0 -32 2.5 -51.5t14.5 -43.5q7 -12 18.5 -20.5t26.5 -14.5zM781 0h-24t-33 -1q-49 0 -91 3.5
t-59 12.5q-25 12 -28 14q-19 11 -42 43l-261 351l214 282q6 9 12 25t6 30q0 15 -5 24q-11 25 -40 34h236l-291 -369l256 -337q12 -16 24.5 -28.5t31.5 -26.5q35 -26 50 -35t44 -22z" />
    <glyph glyph-name="L" unicode="L" horiz-adv-x="657" 
d="M621 167l-63 -167h-522q11 5 23 10q17 10 26.5 28t13 39t3.5 46v23v540v14q0 31 -2.5 48t-14.5 36q-8 14 -16.5 20t-27.5 14h251q-18 -8 -27 -14.5t-18 -20.5q-12 -20 -15 -41t-3 -61v-575q9 -3 64.5 -10t108.5 -7q61 0 96 13q43 17 55 22q28 12 68 43z" />
    <glyph glyph-name="M" unicode="M" horiz-adv-x="1194" 
d="M1168 0h-259q41 12 52 38q5 10 7 22t2 24v16q-2 10 -2 13l-69 577l-280 -702q-10 8 -22.5 19.5t-24.5 23.5q-21 20 -50 77q-8 17 -29 65l-216 520l-78 -582q-2 -14 -2 -29q0 -14 1.5 -21.5t6.5 -18.5q15 -30 47 -42h-216q15 11 22.5 18.5t17.5 24.5q21 35 27 82l79 589
q1 9 2.5 18t1.5 19q0 19 -10.5 34.5t-16.5 21.5t-20 11h224l3 -24q2 -9 6.5 -20.5t7.5 -18.5l233 -535l215 547q4 9 5 12q3 7 3 13q1 13 -3 26h231q-15 -5 -24.5 -13.5t-16.5 -22.5t-7 -27q2 -19 3 -30l80 -611q4 -34 9 -46.5t15 -26.5t22 -25q9 -8 23 -16z" />
    <glyph glyph-name="N" unicode="N" horiz-adv-x="910" 
d="M884 818q-40 -16 -58 -50q-7 -12 -11.5 -27.5t-4.5 -37.5v-18l1 -726q-29 9 -50 19.5t-47 30.5q-17 12 -32 27q-7 7 -43 53l-438 553l1 -511v-13q0 -24 5.5 -44t25.5 -47q5 -6 20 -15.5t22 -11.5h-239q13 5 27 14q18 12 28.5 28.5t15 38t4.5 37.5v11v563q0 24 -2.5 43
t-11.5 33q-14 20 -25.5 30.5t-33.5 19.5h199q2 -15 4 -19q6 -11 8 -14q7 -11 17 -25l451 -569v496q0 32 -3.5 51t-17.5 41q-8 13 -19 22t-28 17h235z" />
    <glyph glyph-name="O" unicode="O" 
d="M944 387q0 -162 -115 -281q-124 -128 -317 -128q-212 0 -344 122.5t-132 306.5q0 172 113 296q123 135 319 135q237 0 365 -142q111 -124 111 -309zM805 404q0 142 -74 235q-86 108 -245 108q-143 0 -229 -108q-78 -98 -78 -240q0 -145 90.5 -240.5t230.5 -95.5
q136 0 224 108q81 100 81 233z" />
    <glyph glyph-name="P" unicode="P" horiz-adv-x="653" 
d="M620 607q0 -102 -80 -171t-187 -69q-48 0 -93 16q25 0 45 6q4 1 44 17q58 22 90 59q40 46 40 111q0 22 -4 41q-9 56 -54.5 84t-114.5 28q-24 0 -51 -3l-38 -5v-590q0 -29 3 -50.5t16 -39.5q8 -12 19.5 -22.5t26.5 -18.5h-247q20 10 24 13q10 7 18.5 26t11.5 43.5t3 49.5
v561v13q0 27 -2.5 42.5t-14.5 33.5q-8 12 -17 20t-25 16h307q113 0 192 -53q88 -59 88 -158z" />
    <glyph glyph-name="Q" unicode="Q" horiz-adv-x="984" 
d="M1140 -167l-15 -12q-19 -19 -61 -35t-82 -16q-20 0 -30 1t-30 7q-55 15 -139 66t-185 130l-18 14l-18 -4q-16 -3 -37 -6t-37 -3q-175 0 -309 119q-142 126 -142 310q0 210 139 329q126 108 316 108q186 0 323 -122t137 -291q0 -115 -46 -207q-52 -105 -157 -167l-17 -10
l19 -17q81 -72 143 -113q80 -53 140 -68q26 -7 51.5 -10t54.5 -3zM807 420q0 125 -91 228q-96 108 -224 108q-136 0 -227 -109q-86 -103 -86 -243q0 -134 96 -238t230 -104q148 0 230 110q72 97 72 248z" />
    <glyph glyph-name="R" unicode="R" horiz-adv-x="834" 
d="M817 0q-3 -1 -32.5 -2t-70.5 -1h-15q-62 0 -89.5 6.5t-68.5 46.5q-33 32 -79 91q-21 27 -81 106q-28 35 -73 106q-34 54 -44 71q18 0 46 6.5t56 18.5q50 22 78 55q35 41 35 96q0 6 -1 14.5t-1 13.5q-8 50 -52 80.5t-109 30.5q-27 0 -61 -8l-19 -5v-593v-20
q0 -27 1.5 -41.5t9.5 -30.5t16 -23.5t25 -17.5h-238q17 8 27.5 16t18 24.5t10 34t2.5 39.5v18v562q0 37 -4.5 54.5t-14.5 33.5q-14 23 -42 36h312q104 0 172 -49q77 -55 77 -156q0 -65 -54 -128.5t-133 -84.5l-12 -3l200 -253q20 -24 54 -54q28 -24 52 -38.5t51 -29.5
q22 -12 51 -22z" />
    <glyph glyph-name="S" unicode="S" horiz-adv-x="661" 
d="M628 237q0 -121 -109 -193q-99 -65 -239 -65q-40 0 -71.5 3t-65.5 12l-75 19l-33 157l17 -12q125 -88 240 -88q86 0 138.5 33.5t52.5 84.5q0 64 -47.5 104.5t-191.5 102.5q-104 45 -150 108q-37 51 -37 115q0 114 90 170q79 49 218 49q52 0 93 -5.5t86 -19.5l13 -4v-140
l-15 14q-34 31 -86.5 51t-106.5 20q-61 0 -105 -28.5t-44 -76.5q0 -64 56 -108q40 -32 148.5 -78.5t162.5 -97.5q61 -58 61 -127z" />
    <glyph glyph-name="T" unicode="T" horiz-adv-x="719" 
d="M688 828l-44 -157q-2 10 -9 22.5t-17.5 18.5t-20.5 8t-22 2q-12 -1 -18 -1h-132v-596q0 -27 3.5 -46t19 -41.5t47.5 -37.5h-253q18 10 25 15q11 9 17 26t9.5 36t3.5 51v593h-128q-24 0 -48 -3.5t-43 -12.5q-9 -4 -22.5 -14.5t-18.5 -15.5l44 152l25 -6l37 -3h486h16
q13 0 19 2z" />
    <glyph glyph-name="U" unicode="U" horiz-adv-x="834" 
d="M807 0h-191v80q-41 -43 -98.5 -70.5t-126.5 -27.5q-136 0 -214 61q-93 73 -93 224v450q0 19 -6.5 40t-16.5 34q-13 18 -35 27h242q-13 -6 -20 -11.5t-18 -19.5q-7 -9 -12.5 -31t-5.5 -33v-431q0 -110 53 -167q50 -54 139 -54h17q7 1 11 1q80 8 132.5 55.5t52.5 111.5v451
q0 33 -2 50t-14 40q-7 14 -15 22t-24 16h239q-21 -11 -28 -18t-15 -22t-11.5 -36t-3.5 -43v-13l1 -567q0 -30 4.5 -47.5t15.5 -39.5q7 -12 18 -20q5 -4 25 -12z" />
    <glyph glyph-name="V" unicode="V" horiz-adv-x="820" 
d="M790 818l-324 -855q-12 5 -37.5 22.5t-53.5 40.5q-18 15 -32.5 40t-28.5 62l-196 544q-11 32 -15 43.5t-12 27.5q-13 26 -24 42.5t-27 32.5h175q-3 -12 -3 -20q0 -13 6 -34.5t13 -42.5l210 -572l196 532q12 33 12 56q0 5 -2 23.5t-15 33.5q-9 10 -29 24h187z" />
    <glyph glyph-name="W" unicode="W" horiz-adv-x="1231" 
d="M1199 818l-261 -853q-9 4 -41 26q-36 25 -55 40.5t-33.5 43t-25.5 62.5l-146 451l-194 -623q-4 2 -38 27q-29 21 -57 42q-17 13 -32.5 38.5t-25.5 57.5l-183 565q-5 19 -11 33.5t-16.5 31.5t-22 30.5t-28.5 27.5h184q-3 -4 -4 -6q-1 -3 -1 -8q0 -20 5 -41q1 -4 11 -34
l187 -576l160 527q4 16 6 25t2 22q0 15 -2.5 35t-18.5 35q-11 11 -31 21h184q-6 -18 -5 -26q0 -19 5 -40.5t12 -42.5l180 -554l158 521q10 34 10 52q0 11 -6 32.5t-21.5 35.5t-40.5 22h196z" />
    <glyph glyph-name="X" unicode="X" horiz-adv-x="898" 
d="M869 0h-10h-128q-13 0 -26 4t-22 9q-15 10 -27 25q-8 10 -20 28l-195 290l-185 -245q-9 -12 -15 -27q-11 -25 -8 -42q2 -12 24.5 -27t29.5 -15h-254l347 438l-199 288q-10 13 -19.5 26.5t-25.5 29t-31 24.5q-4 2 -23 12h13h135h17q5 0 17 -5.5t22 -20t16 -23.5l165 -239
l119 158q21 31 28 43q19 34 16 51q-3 15 -15.5 23t-37.5 13h232l-284 -367l228 -340q14 -21 25 -35q18 -23 36 -39t37 -27q11 -6 18 -10z" />
    <glyph glyph-name="Y" unicode="Y" horiz-adv-x="809" 
d="M780 818l-306 -460v-224q0 -33 2.5 -52t20.5 -43q8 -10 18 -19q14 -13 27 -20h-253q14 8 24 17t18.5 24t11 34t2.5 44v19l1 219l-221 355q-16 29 -25.5 41.5t-22.5 24.5q-18 18 -28 25.5t-24 14.5h13h110q16 0 25 -2t23 -8t21 -12.5t18 -24.5l193 -312l159 238
q6 10 12 27.5t6 35.5v9q-3 18 -24 35q-7 6 -24 14h223z" />
    <glyph glyph-name="Z" unicode="Z" horiz-adv-x="793" 
d="M756 163l-72 -163h-655l447 721q-8 2 -121 5.5t-121 3.5q-43 0 -82 -16q-14 -6 -75 -39l66 143h551l-453 -712q7 -1 105.5 -7.5t158.5 -6.5h31q18 2 26 2q52 0 102 21q17 7 92 48z" />
    <glyph glyph-name="bracketleft" unicode="[" horiz-adv-x="356" 
d="M315 -173h-282q12 9 17 14q13 13 19 30.5t7.5 34t1.5 38.5v739v15v12q0 34 -3.5 47.5t-13.5 28.5q-6 10 -11.5 16.5t-16.5 15.5h280v-67h-126v-857h128v-67z" />
    <glyph glyph-name="backslash" unicode="\" horiz-adv-x="473" 
d="M513 -173h-90l-389 991h92z" />
    <glyph glyph-name="bracketright" unicode="]" horiz-adv-x="362" 
d="M323 -173h-283v67h129v857h-126v67h280q-10 -8 -16.5 -15t-12.5 -17q-9 -15 -12.5 -36t-3.5 -45v-22v-739q0 -21 1.5 -37.5t7 -33.5t13 -26t23.5 -20z" />
    <glyph glyph-name="asciicircum" unicode="^" horiz-adv-x="459" 
d="M432 612q-32 0 -45.5 2.5t-43 13.5t-66.5 31q-27 15 -45 28q-17 -14 -53 -33q-44 -24 -77.5 -32t-72.5 -8l203 188z" />
    <glyph glyph-name="underscore" unicode="_" horiz-adv-x="746" 
d="M774 -188h-768v36h768v-36z" />
    <glyph glyph-name="grave" unicode="`" horiz-adv-x="390" 
d="M365 604l-332 100l66 91z" />
    <glyph glyph-name="a" unicode="a" horiz-adv-x="647" 
d="M621 62l-49 -86q-10 -1 -36 2.5t-50 11.5q-34 13 -56 39q-25 29 -25 65l1 207q-29 -10 -58 -19.5t-56 -15.5q-81 -16 -110 -46q-22 -22 -22 -63t38 -70t95 -29q34 0 70 12l22 8l-74 -99l-46 -3q-102 0 -168 57q-60 52 -60 117q0 77 41.5 114.5t138.5 60.5q60 11 120 23
q69 21 69 69q0 5 -2 17q-6 29 -37.5 46.5t-80.5 17.5q-64 0 -137 -33l-31 -14l85 124l15 1q37 5 76 5q41 0 76 -6.5t71 -26t58.5 -61.5t22.5 -92l-1 -230v-19q0 -22 5 -38t20 -25q36 -22 63 -22q8 0 12 1z" />
    <glyph glyph-name="b" unicode="b" horiz-adv-x="679" 
d="M644 290q0 -139 -115 -218q-121 -83 -349 -83l-134 11q9 4 17 13q4 5 12 16.5t10.5 22t2.5 27.5v640q0 27 -3.5 42t-17.5 32q-8 9 -14.5 14.5t-15.5 10.5h109q15 0 30.5 6.5t27.5 15.5v-751q34 -20 87 -20q88 0 153 50q78 60 78 166q0 108 -59 163q-50 46 -128 46
q-45 0 -81 -15l-22 -9l62 105l21 4q38 8 70 8q112 0 185.5 -79.5t73.5 -217.5z" />
    <glyph glyph-name="c" unicode="c" horiz-adv-x="630" 
d="M602 127l-63 -117l-25 -7q-69 -20 -130 -20q-155 0 -254 91q-95 87 -95 212q0 142 110 225q101 76 251 76q38 0 62.5 -2.5t53.5 -9.5l9 -2v-132l-12 11q-30 28 -69.5 41.5t-83.5 13.5q-81 0 -139 -61t-58 -148q0 -97 69 -163q73 -70 188 -70q38 0 76 10.5t77 32.5z" />
    <glyph glyph-name="d" unicode="d" horiz-adv-x="735" 
d="M691 0h-168v343q0 70 -50 116.5t-119 46.5q-95 0 -145 -64q-44 -56 -44 -144q0 -101 70 -170q63 -62 141 -62q52 0 92 23l19 11l-73 -112l-20 -2q-24 -3 -47 -3q-133 0 -219 81q-91 85 -91 226q0 113 74 200q85 100 223 100q52 0 104 -20t86 -57v206q0 27 -4 43.5
t-17.5 32t-31.5 23.5h116q15 0 31 8t21 14v-741q0 -25 2.5 -39t12.5 -30.5t37 -29.5z" />
    <glyph glyph-name="e" unicode="e" horiz-adv-x="664" 
d="M626 132l-61 -116l-23 -8q-37 -13 -75 -18.5t-83 -5.5q-148 0 -249.5 87t-101.5 223t89 216.5t227 80.5q111 0 192 -72q85 -76 85 -187v-26h-454q0 -104 57 -166q68 -74 209 -74q78 0 153 45zM497 381q-16 64 -56 95t-100 31q-62 0 -106 -32t-59 -93z" />
    <glyph glyph-name="f" unicode="f" horiz-adv-x="415" 
d="M447 834l-84 -95q-8 9 -28 16t-46 7q-36 0 -56 -20q-12 -13 -17.5 -29.5t-5.5 -31.5v-111h106h19q11 0 21 3t25 10l1 -119q-11 16 -27 20.5t-24 4.5h-121l1 -378q0 -19 3 -32.5t13 -38.5q6 -14 15 -23q6 -5 22 -17h-217q21 12 35 34q9 14 11.5 31t2.5 41v382h-63l64 82
v89q0 45 35.5 92.5t86.5 69.5q26 12 59.5 16.5t73.5 4.5q33 0 60 -2.5t35 -5.5z" />
    <glyph glyph-name="g" unicode="g" horiz-adv-x="708" 
d="M676 571l-8 -18q-11 -28 -22 -49t-19 -25t-23 -4q-17 0 -44.5 4.5t-52.5 9.5l-26 4q43 -30 63 -61q25 -38 25 -90q0 -103 -100 -150q-56 -26 -180 -44q-15 -2 -25.5 -9.5t-10.5 -23.5q0 -20 26.5 -22.5t56.5 -2.5q151 0 224 -34q96 -45 96 -157q0 -101 -109 -159
q-94 -50 -225 -50q-174 0 -275 58q-89 51 -89 120q0 48 39 76q33 24 77 24q27 0 41.5 -4t29.5 -9q-14 -9 -27 -18q-13 -14 -13 -47q0 -60 61 -91q56 -28 156 -28q80 0 141 33q68 37 68 95q0 69 -80 95q-58 19 -175 19q-100 0 -138 18.5t-38 70.5q0 18 21 32q9 6 44 21l30 14
l-18 6q-63 21 -100 65q-42 50 -42 120q0 91 72 151t174 60h395zM442 352q0 49 -41 89q-45 44 -104 44q-62 0 -100.5 -30.5t-38.5 -82.5q0 -54 47.5 -99.5t103.5 -45.5q54 0 93.5 35.5t39.5 89.5z" />
    <glyph glyph-name="h" unicode="h" horiz-adv-x="672" 
d="M646 0h-216q15 7 24.5 14t17.5 20.5t9.5 25.5t1.5 38v245q0 72 -31 114q-36 49 -107 49q-77 0 -111 -45q-29 -38 -29 -105v-249q0 -17 0.5 -32.5t9 -33t21.5 -28.5q7 -6 21 -13h-217q19 8 27.5 15t16 21t9.5 27t2 30v21v601q0 27 -2.5 42t-14.5 32t-36 29l106 1h20
q9 4 13 5q15 6 24 16v-327q28 33 80 55t107 22q20 0 40 -3q78 -12 121 -66t43 -130v-289q0 -26 2.5 -42.5t13.5 -31.5q5 -8 11.5 -13.5t22.5 -14.5z" />
    <glyph glyph-name="i" unicode="i" horiz-adv-x="348" 
d="M170 648q-37 0 -58 23.5t-21 55.5q0 31 19.5 53.5t56.5 22.5t58 -23.5t21 -55.5q0 -31 -19.5 -53.5t-56.5 -22.5zM281 0h-214q10 5 19 14q4 4 14.5 16.5t13.5 24.5t3 33v389q0 26 -1.5 38t-10 24.5t-14.5 17.5t-22 13l95 2q16 0 34.5 6t32.5 16l1 -502v-26
q2 -14 10 -27.5t19 -24t20 -14.5z" />
    <glyph glyph-name="j" unicode="j" horiz-adv-x="328" 
d="M182 649q-37 0 -57.5 23.5t-20.5 54.5t19.5 53.5t56.5 22.5t57.5 -23.5t20.5 -54.5t-19.5 -53.5t-56.5 -22.5zM244 -107q0 -39 -19 -72q-25 -43 -82 -72q-40 -20 -71 -27.5t-67 -7.5q33 17 60.5 44.5t45.5 67.5q13 29 16 60.5t3 67.5v523q0 12 -1 29t-13 36
q-8 12 -15.5 17.5t-18.5 10.5h94q10 0 20 3t16 5q17 5 32 16v-701z" />
    <glyph glyph-name="k" unicode="k" horiz-adv-x="654" 
d="M254 0h-214q10 5 19 14q4 4 14 16.5t13.5 25t3.5 32.5v632q0 27 -1.5 39t-10.5 25t-17 21t-19 13h95q9 0 16.5 0.5t17 3.5t19 9t14.5 9l1 -748v-26q2 -14 9.5 -27.5t18 -23.5t21.5 -15zM629 0q-1 -1 -16.5 -1h-27.5h-13q-33 0 -51.5 1t-35 5.5t-31.5 14.5t-31 32
l-197 266l139 156q26 30 26 56q0 8 -1.5 16t-9 13.5t-20.5 10.5h202l-212 -237l199 -258q15 -20 39 -43.5t41 -31.5z" />
    <glyph glyph-name="l" unicode="l" horiz-adv-x="341" 
d="M292 0h-214q10 5 19 14q4 4 13.5 16t13.5 26t4 32v632q0 27 -1.5 39t-10.5 25.5t-15 19.5q-9 10 -18 14h92q19 0 30.5 3.5t17.5 6.5q5 2 20 12v-748v-26q2 -14 9.5 -27.5t18 -23.5t21.5 -15z" />
    <glyph glyph-name="m" unicode="m" horiz-adv-x="1062" 
d="M1047 0h-223q13 6 22.5 14t17.5 21.5t9.5 25t1.5 37.5l1 239q0 69 -36 117q-39 52 -105 52q-60 0 -90 -24q-47 -38 -47 -139v-251v-25q2 -16 15 -36q6 -10 13 -17t21 -14h-223q29 10 45 34q8 13 10.5 27t2.5 35v229q0 71 -37 124q-41 58 -105 58q-66 0 -103.5 -40.5
t-37.5 -109.5v-250q0 -13 0.5 -29t10.5 -37q7 -16 19 -26t23 -15h-221q31 12 44 38q9 17 10.5 31t1.5 46l-1 351v25q0 21 -2.5 30t-10.5 20t-18.5 17.5t-25.5 11.5h113q8 0 13 1q6 1 20 7t25 15v-99q27 41 66 66q48 31 106 31q19 0 46 -5q57 -12 88 -34q26 -18 59 -66l4 -5
l6 8q41 53 88.5 76.5t107.5 23.5q24 0 59 -5q82 -11 125 -87q34 -60 34 -129l1 -269v-11q0 -18 1.5 -27.5t10.5 -26.5q4 -7 18.5 -18t26.5 -16z" />
    <glyph glyph-name="n" unicode="n" horiz-adv-x="670" 
d="M635 0h-213q13 6 20.5 13t17 21.5t11 27t1.5 39.5v241q0 73 -30 115q-35 49 -107 49q-78 0 -112 -45q-28 -37 -28 -105v-249q0 -17 0.5 -33.5t7.5 -31t16.5 -24t27.5 -18.5h-218q18 8 27 15t17.5 23t10 30t1.5 46l-1 356q0 36 -3 48.5t-11.5 24t-15.5 16.5t-19 11h103
q18 0 31.5 6t25.5 18l-1 -81q28 34 80 55.5t108 21.5q19 0 39 -3q78 -12 121 -66t43 -130l1 -286q0 -32 2 -45t13 -29q7 -9 12 -14q10 -10 22 -17z" />
    <glyph glyph-name="o" unicode="o" horiz-adv-x="703" 
d="M671 288q0 -124 -85 -212q-90 -93 -228 -93q-145 0 -231.5 85.5t-86.5 215.5q0 127 81 211q88 91 237 91q146 0 234 -96q79 -86 79 -202zM547 285q0 85 -48 148q-54 71 -141 71q-89 0 -143 -60t-54 -148q0 -104 52.5 -168.5t144.5 -64.5t143 67q46 61 46 155z" />
    <glyph glyph-name="p" unicode="p" horiz-adv-x="713" 
d="M681 285q0 -123 -65 -206q-77 -98 -224 -98q-25 0 -45.5 2t-36.5 8l-18 6l-65 103l52 -21q22 -9 44.5 -12.5t48.5 -3.5q90 0 137.5 60.5t47.5 159.5q0 102 -61 163q-55 55 -133 55q-68 0 -114 -41q-51 -46 -51 -122v-489q0 -20 2.5 -42t9.5 -35.5t19.5 -22.5t22.5 -12
h-214q8 5 18.5 14.5t16.5 20.5q10 18 12.5 42t2.5 32v623q0 12 -0.5 29.5t-11.5 34.5q-6 10 -16 20.5t-24 16.5h95q23 0 38.5 6.5t27.5 15.5v-90l14 14q33 33 85 52.5t108 19.5q112 0 188 -70q89 -82 89 -233z" />
    <glyph glyph-name="q" unicode="q" horiz-adv-x="712" 
d="M683 570q-27 -10 -42 -33q-7 -11 -11 -26.5t-4 -25.5v-642q0 -31 4 -49.5t20 -35.5q11 -13 28 -21h-224q27 8 43 30q10 15 12.5 45t2.5 35v621q-9 7 -47 14t-77 7q-108 0 -167 -52q-63 -56 -63 -167q0 -89 67.5 -148.5t160.5 -59.5q33 0 56 9l38 15l-61 -95l-14 -3
q-35 -8 -69 -8q-125 0 -211 75q-92 80 -92 207q0 141 89 222q95 86 276 86h285z" />
    <glyph glyph-name="r" unicode="r" horiz-adv-x="425" 
d="M391 470q-34 22 -66 22q-8 0 -30 -4q-48 -10 -73 -51.5t-25 -96.5v-247q0 -20 1.5 -31t9 -24t18.5 -23.5t21 -14.5h-214q7 4 12.5 9t20.5 21q17 22 17 60v387q0 26 -1.5 37t-10 24.5t-16 19t-20.5 12.5h95q10 0 19.5 3t15.5 5q17 5 32 16v-104q11 29 32 51.5t53 35.5
q14 7 28.5 10t29.5 3q7 0 16 -1t14 -1l21 -2v-116z" />
    <glyph glyph-name="s" unicode="s" horiz-adv-x="543" 
d="M510 192q0 -92 -46 -141q-65 -69 -228 -69q-39 0 -76 6t-72 20l-15 6l-40 121l16 -10q48 -30 102.5 -45.5t103.5 -15.5q59 0 96.5 15.5t44.5 47.5q2 6 2 11v10q0 44 -60 70q-71 27 -141 54q-74 33 -106 73q-27 34 -27 75q0 88 66 130q60 38 174 38q38 0 68.5 -3t64.5 -12
l8 -2v-105l-8 4q-30 16 -71 25t-78 9q-50 0 -81 -14t-31 -43q0 -11 6 -26q11 -24 106 -58q66 -23 96 -33q60 -22 91 -57t35 -81z" />
    <glyph glyph-name="t" unicode="t" horiz-adv-x="442" 
d="M411 62l-68 -92q-11 -4 -26 -6t-28 -2q-50 0 -89.5 25t-60 73.5t-20.5 103.5v316h-86v53l36 10q26 7 45.5 23t33.5 39q19 32 27 64.5t8 71.5l1 24h53v-195h118q18 0 32.5 3.5t23.5 9.5v-128q-11 14 -24 19.5t-32 5.5h-12h-106v-300q0 -43 13 -73t46 -47q23 -12 54 -12
q18 0 34.5 4t26.5 10z" />
    <glyph glyph-name="u" unicode="u" horiz-adv-x="666" 
d="M644 0h-166v83q-30 -48 -73 -72q-51 -28 -130 -28q-85 7 -136 64q-56 62 -56 168l1 259v16q0 14 -6 37q-2 8 -18 23t-31 20h93h16q14 0 26.5 3.5t18.5 6.5q4 2 15 9v-351q0 -81 37 -121q30 -32 85 -39q6 -1 19 -1q62 0 100 49t38 116l1 209v11q0 28 -1.5 41t-9 27.5
t-19 24t-22.5 15.5h86h25q16 0 26 3t16 6q2 1 15 8v-483v-37q2 -17 12 -34q7 -10 18.5 -20t19.5 -13z" />
    <glyph glyph-name="v" unicode="v" horiz-adv-x="743" 
d="M715 570l-282 -596q-5 3 -29 18q-29 19 -42 29q-18 14 -32 30q-20 23 -30 46l-169 373q-9 20 -12 25q-8 16 -27 36q-8 9 -24 19q-23 15 -39 20h137q6 0 10 1q3 1 16 6l19 9l1 -18q0 -14 9 -34l189 -411l157 339q12 24 12 44q0 3 -2.5 18.5t-15.5 27.5t-29 18h183z" />
    <glyph glyph-name="w" unicode="w" horiz-adv-x="1051" 
d="M1017 570l-243 -594q-7 3 -26.5 15.5t-36.5 25.5q-30 25 -43 60l-126 333l-168 -433q-7 2 -29.5 15t-39.5 26.5t-28 27.5t-20 37l-157 412q-10 26 -31 50q-8 10 -19 17q-2 2 -13 8h102q13 0 27 5.5t24 15.5l4 -27q2 -11 3 -16q0 -1 6 -17l145 -386l132 346q4 9 4 22
q0 14 -5 25t-17 22q-7 6 -16 10h166v-28q0 -10 3.5 -18t7.5 -16l133 -361l129 324q3 9 6 20.5t3 19.5q0 9 -4 22t-14.5 22t-27.5 15h169z" />
    <glyph glyph-name="x" unicode="x" horiz-adv-x="727" 
d="M694 0h-14h-122q-10 0 -15 2q-9 5 -14 7q-12 6 -18.5 12t-14.5 16l-140 189l-135 -159q-3 -5 -8 -15.5t-3 -20.5q1 -9 13.5 -20t17.5 -11h-208l268 299l-160 207q-6 9 -14 18q-11 13 -20 20l-39 26h13h100q24 0 35 -4.5t22.5 -12.5t19.5 -19l122 -159l95 118
q6 7 12.5 22.5t4.5 25.5t-16 18.5t-21 10.5h214l-236 -264l148 -195l26 -32q21 -24 46 -47q17 -15 26.5 -22t14.5 -10z" />
    <glyph glyph-name="y" unicode="y" horiz-adv-x="724" 
d="M694 570l-272 -641q-26 -61 -73 -108q-59 -58 -129 -70q-38 -6 -69 -6q-34 0 -63.5 8t-63.5 28l105 77q33 -30 75 -30q40 0 72 31q27 26 44 67l33 83q-16 14 -31 34q-8 11 -14 20.5t-10 18.5l-188 411q-5 12 -14 25.5t-22 24t-17 13.5q-10 8 -24 14h118q12 0 19 -2
q2 0 18 -8q19 -6 31 -34l187 -418l139 354q10 25 10 50q0 5 -2 17.5t-20 27.5q-13 11 -19 13h180z" />
    <glyph glyph-name="z" unicode="z" horiz-adv-x="668" 
d="M634 141l-70 -142l-531 1l344 480q-10 3 -85.5 8t-92.5 5q-42 0 -72 -14q-33 -21 -52 -32l58 123h446l-328 -468q5 -2 47 -7q96 -12 154 -12h18q12 2 16 2q57 7 93 25q15 8 55 31z" />
    <glyph glyph-name="braceleft" unicode="{" horiz-adv-x="305" 
d="M271 -171l-7 -1q-10 -2 -22 -2q-23 0 -46 7t-40 24q-37 40 -37 118v210q0 42 -7 69.5t-29 42.5q-8 5 -16 10.5t-16 8.5l-18 6l17 6q14 5 17 7q10 7 15 10q22 15 29 43t7 69v212q0 37 9 67.5t27 49t40.5 25.5t47.5 7q11 0 21 -2l7 -1l-5 -2q-12 -6 -23 -11q-15 -9 -27 -28
q-22 -33 -22 -86v-219q0 -29 -5 -53q-8 -41 -29 -62q-11 -11 -26 -18t-25 -11l-7 -3l8 -4q13 -6 27 -12.5t24 -15.5q21 -21 29 -61q5 -25 5 -54v-219q0 -53 22 -86q12 -19 26 -28q17 -8 24 -11z" />
    <glyph glyph-name="bar" unicode="|" horiz-adv-x="170" 
d="M118 -263h-70v1080h70v-1080z" />
    <glyph glyph-name="braceright" unicode="}" horiz-adv-x="305" 
d="M276 322l-19 -6q-5 -2 -12 -6q-12 -8 -19 -13q-22 -15 -29 -43t-7 -69v-210q0 -37 -9 -67.5t-27 -49t-40.5 -25.5t-47.5 -7q-12 0 -22 2l-7 1l5 2q12 6 24 11q15 9 27 28q22 33 22 86l-1 219q0 28 6.5 61t28.5 54q10 10 25.5 17t25.5 11l8 4l-7 3q-23 10 -27 12
q-14 7 -24 17q-21 21 -30 61q-5 24 -5 54l1 219q0 53 -22 86q-9 14 -20 23q-5 4 -31 16l-5 2l7 1q10 2 22 2q23 0 47 -7t40 -24q37 -40 37 -118v-212q0 -44 6 -70.5t29 -41.5q11 -7 15 -9q7 -4 17 -8z" />
    <glyph glyph-name="asciitilde" unicode="~" horiz-adv-x="685" 
d="M659 757l-6 -8q-35 -47 -56 -66q-32 -29 -74 -39q-15 -4 -34 -4q-47 0 -143 40.5t-133 40.5q-11 0 -26.5 -2.5t-31.5 -13.5q-26 -18 -59 -66l-8 -12l-51 36l6 11q29 45 57 70q36 32 78 39q18 3 36 3q56 0 149 -40t129 -40q14 0 21 1t18 7q24 11 40 29q18 25 30 40l5 7z
" />
    <glyph glyph-name="nonbreakingspace" unicode="&#xa0;" horiz-adv-x="648" 
 />
    <glyph glyph-name="exclamdown" unicode="&#xa1;" horiz-adv-x="259" 
d="M117 588q36 0 56 -22t20 -53t-21 -55t-58 -24q-36 0 -56 22t-20 53t21 55t58 24zM230 -263l-165 -1h-5q-9 0 -14 6q-3 3 -1 18l28 602h89l23 -561q0 -24 15 -42q11 -15 30 -22z" />
    <glyph glyph-name="cent" unicode="&#xa2;" horiz-adv-x="552" 
d="M520 268l-29 -130l-54 -14q-30 -6 -39 -7.5t-23 -1.5v-116h-70v117q-26 0 -61.5 11.5t-66.5 30.5q-71 44 -104.5 106t-33.5 130q0 54 17.5 103t51 94.5t89.5 73.5q63 32 108 32v120h69v-119q11 1 19 1q9 0 51 -6q15 -2 16 -2l24 -8v-113q-13 12 -25.5 20.5t-26.5 13.5
t-28.5 8t-28.5 3v-415q36 0 67.5 15t46.5 25.5t31 27.5zM305 207v404q-52 -10 -81 -32q-38 -28 -53 -73q-8 -22 -12 -47.5t-4 -49.5q0 -57 21.5 -104t61.5 -70q25 -15 42 -21q6 -2 25 -7z" />
    <glyph glyph-name="sterling" unicode="&#xa3;" horiz-adv-x="603" 
d="M567 139l-1 -132q-16 -9 -54.5 -19t-74.5 -10h-12q-7 0 -19 2q-34 6 -64 21.5t-51 33.5l-26 -21q-45 -34 -112 -34q-51 0 -82 21q-36 24 -36 70q0 52 40 77.5t98 25.5q39 0 75 -11l21 -6q7 7 11.5 22.5t4.5 42.5q0 36 -6.5 58.5t-25.5 59.5l-24 48l-126 -1v74l69 -1
l-19 31q-23 35 -34 71.5t-11 70.5q0 51 25.5 95.5t71.5 71.5q33 19 66.5 27.5t69.5 8.5q34 0 68 -7q21 -4 61 -17l33 -11l-1 -132q-5 17 -50 42q-52 28 -101 28q-24 0 -43.5 -6.5t-39.5 -22.5q-32 -28 -32 -68q0 -22 11 -48.5t28 -51.5l57 -80h141v-74h-101q13 -20 25 -58.5
t12 -78.5q0 -9 -3 -32.5t-12.5 -47.5t-27.5 -51l12 -5q16 -7 32.5 -10t31.5 -3h15q11 2 16 2q25 3 51 13.5t43 21.5zM227 77l-13 9q-27 20 -63 20q-21 0 -34 -9t-13 -29q0 -14 12 -21t30 -7q39 0 66 24z" />
    <glyph glyph-name="yen" unicode="&#xa5;" horiz-adv-x="817" 
d="M784 819l-215 -310h165v-67h-203l-54 -82h257v-66h-259v-160q0 -42 4 -60t19 -38q12 -15 23.5 -23.5t21.5 -13.5l-252 1q15 7 25.5 16.5t19 23.5t11 32t2.5 41v26v156h-259v63h262l-54 85h-205v67h163l-128 203q-5 7 -19 26q-17 22 -28 34q-16 16 -28.5 26.5t-23.5 17.5
l14 1h109q17 0 26 -2t22.5 -7.5t20.5 -12t18 -24.5l193 -312l158 238q8 13 13.5 28t5.5 32q0 8 -1.5 19.5t-22.5 27.5q-11 8 -25 14h224z" />
    <glyph glyph-name="section" unicode="&#xa7;" horiz-adv-x="590" 
d="M504 661l-22 22q-21 20 -61.5 34t-82.5 14q-51 0 -80 -22q-35 -26 -35 -80q0 -28 80 -72q68 -35 137 -70q58 -31 87 -79q26 -42 26 -94q0 -36 -14 -71.5t-38 -64.5q-15 -18 -21.5 -24.5t-20.5 -17.5l9 -9q16 -16 27 -44t11 -67q0 -23 -4.5 -47t-14.5 -52
q-24 -64 -100 -100q-69 -33 -160 -33q-54 0 -107 14q-30 8 -40 11q-17 6 -40 17v130q15 -13 40 -25.5t60 -26.5q51 -20 102 -20q47 0 82.5 20t49.5 60q6 17 6 33q0 48 -57 92q-38 29 -115 64q-84 38 -124.5 88.5t-40.5 106.5q0 58 40 116q11 17 33 36q17 15 30 22
q-22 33 -34 63t-12 60q0 22 4 37.5t17 37.5q27 48 86.5 73.5t134.5 25.5q79 0 148 -30l14 -6v-122zM414 197q30 56 30 91q0 59 -162 145q-24 13 -40.5 23t-30.5 16l-10 -11q-41 -48 -41 -88q0 -58 98 -114q47 -26 95 -51l49 -26z" />
    <glyph glyph-name="dieresis" unicode="&#xa8;" horiz-adv-x="455" 
d="M128 788q32 -6 48.5 -27.5t16.5 -48.5q0 -31 -21 -55t-55 -24q-10 0 -16 1q-32 6 -48.5 27.5t-16.5 48.5q0 31 21 55t55 24q10 0 16 -1zM355 789q34 -5 51.5 -27t17.5 -51q0 -33 -21 -57.5t-58 -24.5q-8 0 -13 1q-34 5 -51.5 27t-17.5 51q0 33 21 57.5t58 24.5q8 0 13 -1
z" />
    <glyph glyph-name="copyright" unicode="&#xa9;" horiz-adv-x="892" 
d="M445 0q-193 0 -307 128q-103 116 -103 282q0 168 102 283q114 128 308 128t308 -128q103 -116 103 -283t-102 -282q-114 -128 -309 -128zM445 44q173 0 275 114q92 103 92 252t-91 252q-102 115 -276 115q-173 0 -274 -114q-92 -104 -92 -253q0 -150 91 -252
q101 -114 275 -114zM620 239l-12 -28l-15 -8q-21 -10 -60 -20t-73 -10q-106 0 -174 55t-78 149q-1 12 -1.5 21t-0.5 15q0 97 62 160q52 52 128 66q23 4 52 4q23 0 39 -1.5t36 -4.5l84 -21l10 -2l-14 -97h-20v40v7q0 14 -25.5 27.5t-46 17t-36 5.5t-27.5 2q-17 0 -34 -3
q-73 -17 -106.5 -67.5t-33.5 -122.5v-19q2 -13 2 -19q9 -75 63 -127t125 -52q48 0 76.5 7.5t59.5 23.5l15 8z" />
    <glyph glyph-name="ordfeminine" unicode="&#xaa;" horiz-adv-x="412" 
d="M375 505l-29 -52q-13 0 -24 1.5t-29 8t-32 23t-14 38.5v123q-4 0 -16 -5q-33 -12 -52 -16q-48 -10 -65 -27q-13 -13 -13 -38q0 -24 22.5 -41.5t57.5 -17.5q21 0 41 7l13 5l-44 -59l-28 -2q-61 0 -100 34q-35 30 -35 70q0 46 24 68.5t83 35.5q83 19 86 20q26 12 26 35
q0 6 -1 10q-4 17 -23 27.5t-47 10.5q-21 0 -39 -4t-43 -16l-18 -8l50 74h9q11 2 21 3t26 1q23 0 44 -4.5t42.5 -16t34.5 -36.5t13 -54v-137v-12q0 -13 2.5 -22.5t12 -15t22.5 -9.5t22 -2zM372 430l-65 -52q-7 -7 -15.5 -10t-20.5 -3h-19h-114t-64 -2l-42 -7l65 53l13 7
q5 2 10 3t9 1q1 1 47.5 0t59.5 -1h15h13h11q41 0 55 3z" />
    <glyph glyph-name="guillemotleft" unicode="&#xab;" horiz-adv-x="602" 
d="M554 423l-162 -116l158 -112v-118l-224 175v113l228 169v-111zM268 423l-162 -116l158 -112v-118l-224 175v113l228 169v-111z" />
    <glyph glyph-name="logicalnot" unicode="&#xac;" horiz-adv-x="858" 
d="M819 0h-65v273h-718v60h783v-333z" />
    <glyph glyph-name="registered" unicode="&#xae;" horiz-adv-x="894" 
d="M449 0q-193 0 -307 128q-103 116 -103 282q0 168 102 283q114 128 308 128t308 -128q103 -116 103 -283t-102 -282q-114 -128 -309 -128zM449 44q173 0 275 114q92 103 92 252t-91 252q-102 115 -276 115q-173 0 -274 -114q-92 -104 -92 -253q0 -150 91 -252
q101 -114 275 -114zM671 185h-6l-37 2l-36 -2l-9 -1l-179 233l2 10l23 -1q47 0 85.5 28t34.5 71q0 34 -18 56t-55 28q-16 2 -25 2q-22 0 -32.5 -1.5t-26.5 -5.5l-10 -3v-360q0 -16 7 -24t16 -9.5t21 -1.5l16 -2v-18h-11q-1 0 -31 2t-48 2q-17 0 -38 -1.5t-43 -2.5h-11v19
l18 1q10 1 18.5 2.5t13.5 7.5q10 10 10 25v338q0 14 -1 17q-5 7 -8 11q-4 6 -20 8t-24 2h-7v19h11l81 -3l120 3h11q43 0 72 -12q40 -16 53 -52q7 -18 7 -38q0 -28 -16 -53t-45 -44q-14 -10 -35 -17q-8 -3 -25 -7l-5 -2l144 -190l17 -13l17 -5h4v-18z" />
    <glyph glyph-name="degree" unicode="&#xb0;" horiz-adv-x="449" 
d="M237 451q-91 0 -147 63q-51 57 -51 136q0 72 42 119q47 53 132 53q91 0 147 -63q51 -57 51 -136q0 -72 -42 -119q-47 -53 -132 -53zM226 503q61 0 95.5 38.5t34.5 91.5q0 55 -34 94q-38 43 -102 43q-61 0 -95.5 -38.5t-34.5 -91.5q0 -55 34 -94q38 -43 102 -43z" />
    <glyph glyph-name="plusminus" unicode="&#xb1;" horiz-adv-x="554" 
d="M516 300h-212v-211h-54v211h-209v59h209v211h57v-211h209v-59zM516 0h-476v45h476v-45z" />
    <glyph glyph-name="acute" unicode="&#xb4;" horiz-adv-x="403" 
d="M369 704l-332 -100l266 191z" />
    <glyph glyph-name="mu" unicode="&#xb5;" horiz-adv-x="669" 
d="M631 114l-7 -35q-8 -42 -51 -73q-39 -28 -77 -28q-7 0 -10 1q-38 5 -69 37.5t-31 75.5l-29 -29q-35 -36 -75 -58.5t-70 -22.5q-29 0 -64 16q-42 19 -66 51v-40q0 -31 26 -109q14 -42 14 -77q0 -29 -15.5 -52t-41.5 -23q-24 0 -39.5 20.5t-15.5 46.5q0 34 9 64
q24 80 25 89l3 31v570h96v-392q0 -49 29 -85.5t74 -36.5q46 0 94.5 37.5t48.5 83.5v393h94v-443q0 -37 19 -68t50 -25q38 7 50 50l9 31h20z" />
    <glyph glyph-name="paragraph" unicode="&#xb6;" horiz-adv-x="746" 
d="M706 817q-34 -18 -49.5 -43.5t-18.5 -46t-3 -62.5v-673q0 -34 3 -61t17 -56q7 -15 20 -25q9 -7 29 -17h-177v866h-119v-866h-178q21 10 29 15q13 9 21.5 27t13.5 45.5t5 68.5v349q-121 0 -191 62.5t-70 177.5q0 122 82 183q75 56 208 56h378z" />
    <glyph glyph-name="periodcentered" unicode="&#xb7;" horiz-adv-x="235" 
d="M119 500q36 0 58 -24q19 -21 19 -53t-21 -56t-59 -24q-37 0 -57 22.5t-20 54.5t21 56t59 24z" />
    <glyph glyph-name="periodcentered" unicode="&#x2219;" horiz-adv-x="235" 
d="M119 500q36 0 58 -24q19 -21 19 -53t-21 -56t-59 -24q-37 0 -57 22.5t-20 54.5t21 56t59 24z" />
    <glyph glyph-name="ordmasculine" unicode="&#xba;" horiz-adv-x="449" 
d="M414 640q0 -74 -52 -128t-134 -54q-86 0 -138 51t-52 129q0 75 48 125q52 54 142 54q86 0 139 -57q47 -51 47 -120zM340 638q0 50 -29 88q-32 42 -83 42q-53 0 -85.5 -35.5t-32.5 -87.5q0 -62 31.5 -100.5t86.5 -38.5t85 40q27 36 27 92zM406 427l-72 -50q-11 -7 -16 -8
q-8 -3 -24 -3h-21h-124.5t-70.5 -2l-46 -7l72 50l14 7l20 3q2 1 44.5 0t73.5 -1h16h14h12q46 0 61 3z" />
    <glyph glyph-name="guillemotright" unicode="&#xbb;" horiz-adv-x="595" 
d="M552 252l-225 -175v118l159 112l-162 116v111l228 -169v-113zM266 252l-225 -175v118l159 112l-162 116v111l228 -169v-113z" />
    <glyph glyph-name="questiondown" unicode="&#xbf;" horiz-adv-x="535" 
d="M316 589q36 0 56 -22t20 -53t-21 -55t-58 -24q-36 0 -56 22t-20 53t21 55t58 24zM504 -123l-70 -116l-13 -5q-52 -20 -112 -20q-91 0 -163 41q-80 45 -101 121q-9 33 -9 62q0 58 36 115q30 47 95 108q38 34 77 68q35 37 35 81q0 17 -2 26l-3 20l95 10l4 -23q3 -17 3 -31
q0 -55 -39 -106q-27 -35 -86 -84q-42 -35 -65 -73q-26 -43 -26 -87q0 -33 16 -64q23 -45 66.5 -69.5t96.5 -24.5q73 0 148 42z" />
    <glyph glyph-name="Agrave" unicode="&#xc0;" horiz-adv-x="953" 
d="M927 0h-270q21 2 45 28q8 9 8 22q0 12 -7 31l-90 225h-309l-75 -204q-8 -22 -8 -45q0 -24 11 -35q19 -18 39 -22h-239q15 7 26 14.5t22 17.5q16 16 27 36q7 13 19 42l249 621q4 10 6 17.5t2 16.5q0 7 -3 18q-9 29 -42 35h202l272 -671q7 -20 16 -40.5t24.5 -41.5
t32.5 -36t42 -29zM584 394l-122 310l-124 -310h246zM630 877l-332 100l66 91z" />
    <glyph glyph-name="Aacute" unicode="&#xc1;" horiz-adv-x="960" 
d="M927 0h-270q21 2 45 28q8 9 8 22q0 12 -7 31l-90 225h-309l-75 -204q-8 -22 -8 -45q0 -24 11 -35q19 -18 39 -22h-239q15 7 26 14.5t22 17.5q16 16 27 36q7 13 19 42l249 621q4 10 6 17.5t2 16.5q0 7 -3 18q-9 29 -42 35h202l272 -671q7 -20 16 -40.5t24.5 -41.5
t32.5 -36t42 -29zM584 394l-122 310l-124 -310h246zM634 973l-332 -100l266 191z" />
    <glyph glyph-name="Acircumflex" unicode="&#xc2;" horiz-adv-x="960" 
d="M927 0h-270q21 2 45 28q8 9 8 22q0 12 -7 31l-90 225h-309l-75 -204q-8 -22 -8 -45q0 -24 11 -35q19 -18 39 -22h-239q15 7 26 14.5t22 17.5q16 16 27 36q7 13 19 42l249 621q4 10 6 17.5t2 16.5q0 7 -3 18q-9 29 -42 35h202l272 -671q7 -20 16 -40.5t24.5 -41.5
t32.5 -36t42 -29zM584 394l-122 310l-124 -310h246zM661 870q-32 0 -45.5 2.5t-43 13.5t-66.5 31q-27 15 -45 28q-17 -14 -53 -33q-44 -24 -77.5 -32t-72.5 -8l203 188z" />
    <glyph glyph-name="Atilde" unicode="&#xc3;" horiz-adv-x="947" 
d="M916 0h-270q21 2 45 28q8 9 8 22q0 12 -7 31l-90 225h-309l-75 -204q-8 -22 -8 -45q0 -24 11 -35q19 -18 39 -22h-239q15 7 26 14.5t22 17.5q16 16 27 36q7 13 19 42l249 621q4 10 6 17.5t2 16.5q0 7 -3 18q-9 29 -42 35h202l272 -671q7 -20 16 -40.5t24.5 -41.5
t32.5 -36t42 -29zM573 394l-122 310l-124 -310h246zM765 998l-6 -8q-35 -47 -56 -66q-32 -29 -74 -39q-15 -4 -34 -4q-47 0 -143 40.5t-133 40.5q-11 0 -26.5 -2.5t-31.5 -13.5q-26 -18 -59 -66l-8 -12l-51 36l6 11q29 45 57 70q36 32 78 39q18 3 36 3q56 0 149 -40t129 -40
q14 0 21 1t18 7q24 11 40 29q18 25 30 40l5 7z" />
    <glyph glyph-name="Adieresis" unicode="&#xc4;" horiz-adv-x="951" 
d="M927 0h-270q21 2 45 28q8 9 8 22q0 12 -7 31l-90 225h-309l-75 -204q-8 -22 -8 -45q0 -24 11 -35q19 -18 39 -22h-239q15 7 26 14.5t22 17.5q16 16 27 36q7 13 19 42l249 621q4 10 6 17.5t2 16.5q0 7 -3 18q-9 29 -42 35h202l272 -671q7 -20 16 -40.5t24.5 -41.5
t32.5 -36t42 -29zM584 394l-122 310l-124 -310h246zM360 1034q32 -6 48.5 -27.5t16.5 -48.5q0 -31 -21 -55t-55 -24q-10 0 -16 1q-32 6 -48.5 27.5t-16.5 48.5q0 31 21 55t55 24q10 0 16 -1zM587 1035q34 -5 51.5 -27t17.5 -51q0 -33 -21 -57.5t-58 -24.5q-8 0 -13 1
q-34 5 -51.5 27t-17.5 51q0 33 21 57.5t58 24.5q8 0 13 -1z" />
    <glyph glyph-name="Aring" unicode="&#xc5;" horiz-adv-x="954" 
d="M472 1099q53 0 83 -34q27 -30 27 -76q0 -47 -30.5 -81.5t-84.5 -34.5q-53 0 -82 32.5t-29 77.5q0 47 30.5 81.5t85.5 34.5zM469 915q33 0 51.5 20.5t18.5 48.5q0 29 -18 49q-21 23 -54 23t-51.5 -20.5t-18.5 -48.5q0 -29 19.5 -50.5t52.5 -21.5zM927 0h-270q21 2 45 28
q8 9 8 22q0 12 -7 31l-90 225h-309l-75 -204q-8 -22 -8 -45q0 -24 11 -35q19 -18 39 -22h-239q15 7 26 14.5t22 17.5q16 16 27 36q7 13 19 42l249 621q4 10 6 17.5t2 16.5q0 7 -3 18q-9 29 -42 35h202l272 -671q7 -20 16 -40.5t24.5 -41.5t32.5 -36t42 -29zM584 394
l-122 310l-124 -310h246z" />
    <glyph glyph-name="AE" unicode="&#xc6;" horiz-adv-x="1253" 
d="M1222 170l-59 -170l-530 -1q19 9 28 15q13 9 20 23q11 19 14.5 39t3.5 46v31v153h-291l-152 -205q-13 -17 -22 -35.5t-9 -30.5q0 -6 3 -11q8 -11 14 -15.5t16 -6.5h-238q30 11 58 31t42 34t35 42l475 621q13 18 18.5 28t5.5 24q0 29 -28 35l440 1l20 2l18 7v-152l-25 23
q-20 17 -60 24.5t-85 7.5q-29 0 -58 -3t-41 -5l-9 -2v-231h157q25 0 33 3q7 1 17 6v-139q-6 8 -10 13q-8 9 -16 14q-16 9 -45 12t-53 3h-84l1 -295q8 -3 66 -10t112 -7q59 0 91 11q49 18 71 29.5t56 40.5zM700 394v293l-228 -293h228z" />
    <glyph glyph-name="Ccedilla" unicode="&#xc7;" horiz-adv-x="790" 
d="M761 151l-63 -144l-11 -5q-41 -16 -73.5 -23.5t-73.5 -7.5h-34h-12q-40 0 -83 8l-21 -56l7 3q16 4 26 4q22 0 41.5 -7.5t31.5 -23.5q16 -22 16 -50q0 -30 -19.5 -50.5t-43.5 -29.5t-50 -9q-32 0 -62.5 10t-63.5 30l-5 3l39 50q3 -7 31.5 -22.5t52.5 -15.5q4 0 14 2.5
t20.5 11t10.5 20.5q0 19 -10.5 27t-27.5 8q-26 0 -30 -7l-37 48l25 65q-71 14 -139 56q-56 35 -93 77q-42 49 -64.5 120t-22.5 152q0 100 35.5 189t104.5 144q60 48 131 75q88 34 186 34q83 0 180 -25l25 -6v-144q-33 29 -94.5 49t-130.5 20q-55 0 -104 -16
q-106 -34 -155 -135q-38 -78 -38 -179q0 -148 92 -239t231 -91q57 0 111.5 14.5t114.5 46.5z" />
    <glyph glyph-name="Egrave" unicode="&#xc8;" horiz-adv-x="660" 
d="M621 171l-59 -171l-529 -1q10 5 21 10q18 10 27 28q13 24 15.5 49.5t2.5 67.5l-1 533v30q0 18 -2.5 31.5t-11.5 29t-19 23.5t-30 17h430l21 3l17 7v-152l-25 23q-20 17 -59.5 24.5t-85.5 7.5q-29 0 -58 -3t-40 -5l-10 -2v-231h158q25 0 33 3l16 6v-139q-5 9 -12.5 16.5
t-12.5 10.5q-17 9 -45.5 12t-53.5 3h-83v-296q6 -2 67.5 -9t109.5 -7q60 0 92 11q51 18 71 29t56 41zM464 873l-332 100l66 91z" />
    <glyph glyph-name="Eacute" unicode="&#xc9;" horiz-adv-x="653" 
d="M621 171l-59 -171l-529 -1q10 5 21 10q18 10 27 28q13 24 15.5 49.5t2.5 67.5l-1 533v30q0 18 -2.5 31.5t-11.5 29t-19 23.5t-30 17h430l21 3l17 7v-152l-25 23q-20 17 -59.5 24.5t-85.5 7.5q-29 0 -58 -3t-40 -5l-10 -2v-231h158q25 0 33 3l16 6v-139q-5 9 -12.5 16.5
t-12.5 10.5q-17 9 -45.5 12t-53.5 3h-83v-296q6 -2 67.5 -9t109.5 -7q60 0 92 11q51 18 71 29t56 41zM475 973l-332 -100l266 191z" />
    <glyph glyph-name="Ecircumflex" unicode="&#xca;" horiz-adv-x="660" 
d="M621 171l-59 -171l-529 -1q10 5 21 10q18 10 27 28q13 24 15.5 49.5t2.5 67.5l-1 533v30q0 18 -2.5 31.5t-11.5 29t-19 23.5t-30 17h430l21 3l17 7v-152l-25 23q-20 17 -59.5 24.5t-85.5 7.5q-29 0 -58 -3t-40 -5l-10 -2v-231h158q25 0 33 3l16 6v-139q-5 9 -12.5 16.5
t-12.5 10.5q-17 9 -45.5 12t-53.5 3h-83v-296q6 -2 67.5 -9t109.5 -7q60 0 92 11q51 18 71 29t56 41zM510 875q-32 0 -45.5 2.5t-43 13.5t-66.5 31q-27 15 -45 28q-17 -14 -53 -33q-44 -24 -77.5 -32t-72.5 -8l203 188z" />
    <glyph glyph-name="Edieresis" unicode="&#xcb;" horiz-adv-x="660" 
d="M621 171l-59 -171l-529 -1q10 5 21 10q18 10 27 28q13 24 15.5 49.5t2.5 67.5l-1 533v30q0 18 -2.5 31.5t-11.5 29t-19 23.5t-30 17h430l21 3l17 7v-152l-25 23q-20 17 -59.5 24.5t-85.5 7.5q-29 0 -58 -3t-40 -5l-10 -2v-231h158q25 0 33 3l16 6v-139q-5 9 -12.5 16.5
t-12.5 10.5q-17 9 -45.5 12t-53.5 3h-83v-296q6 -2 67.5 -9t109.5 -7q60 0 92 11q51 18 71 29t56 41zM196 1033q32 -6 48.5 -27.5t16.5 -48.5q0 -31 -21 -55t-55 -24q-10 0 -16 1q-32 6 -48.5 27.5t-16.5 48.5q0 31 21 55t55 24q10 0 16 -1zM423 1034q34 -5 51.5 -27
t17.5 -51q0 -33 -21 -57.5t-58 -24.5q-8 0 -13 1q-34 5 -51.5 27t-17.5 51q0 33 21 57.5t58 24.5q8 0 13 -1z" />
    <glyph glyph-name="Igrave" unicode="&#xcc;" horiz-adv-x="330" 
d="M289 0h-250q13 7 20 11q16 10 23.5 25.5t12 35t4.5 43.5v18v560v13q0 28 -3 43t-16 36t-41 33h249q-16 -7 -26 -15t-17.5 -21t-12.5 -41.5t-5 -51.5v-559v-18q0 -24 3 -39.5t14 -37.5q7 -13 17.5 -20.5t27.5 -14.5zM330 868l-332 100l66 91z" />
    <glyph glyph-name="Iacute" unicode="&#xcd;" horiz-adv-x="312" 
d="M283 0h-250q13 7 20 11q16 10 23.5 25.5t12 35t4.5 43.5v18v560v13q0 28 -3 43t-16 36t-41 33h249q-16 -7 -26 -15t-17.5 -21t-12.5 -41.5t-5 -51.5v-559v-18q0 -24 3 -39.5t14 -37.5q7 -13 17.5 -20.5t27.5 -14.5zM327 968l-332 -100l266 191z" />
    <glyph glyph-name="Icircumflex" unicode="&#xce;" horiz-adv-x="402" 
d="M325 0h-250q13 7 20 11q16 10 23.5 25.5t12 35t4.5 43.5v18v560v13q0 28 -3 43t-16 36t-41 33h249q-16 -7 -26 -15t-17.5 -21t-12.5 -41.5t-5 -51.5v-559v-18q0 -24 3 -39.5t14 -37.5q7 -13 17.5 -20.5t27.5 -14.5zM402 875q-32 0 -45.5 2.5t-43 13.5t-66.5 31
q-27 15 -45 28q-17 -14 -53 -33q-44 -24 -77.5 -32t-72.5 -8l203 188z" />
    <glyph glyph-name="Idieresis" unicode="&#xcf;" horiz-adv-x="378" 
d="M313 0h-250q13 7 20 11q16 10 23.5 25.5t12 35t4.5 43.5v18v560v13q0 28 -3 43t-16 36t-41 33h249q-16 -7 -26 -15t-17.5 -21t-12.5 -41.5t-5 -51.5v-559v-18q0 -24 3 -39.5t14 -37.5q7 -13 17.5 -20.5t27.5 -14.5zM82 1033q32 -6 48.5 -27.5t16.5 -48.5q0 -31 -21 -55
t-55 -24q-10 0 -16 1q-32 6 -48.5 27.5t-16.5 48.5q0 31 21 55t55 24q10 0 16 -1zM309 1034q34 -5 51.5 -27t17.5 -51q0 -33 -21 -57.5t-58 -24.5q-8 0 -13 1q-34 5 -51.5 27t-17.5 51q0 33 21 57.5t58 24.5q8 0 13 -1z" />
    <glyph glyph-name="Ntilde" unicode="&#xd1;" horiz-adv-x="901" 
d="M884 818q-40 -16 -58 -50q-7 -12 -11.5 -27.5t-4.5 -37.5v-18l1 -726q-29 9 -50 19.5t-47 30.5q-17 12 -32 27q-7 7 -43 53l-438 553l1 -511v-13q0 -24 5.5 -44t25.5 -47q5 -6 20 -15.5t22 -11.5h-239q13 5 27 14q18 12 28.5 28.5t15 38t4.5 37.5v11v563q0 24 -2.5 43
t-11.5 33q-14 20 -25.5 30.5t-33.5 19.5h199q2 -15 4 -19q6 -11 8 -14q7 -11 17 -25l451 -569v496q0 32 -3.5 51t-17.5 41q-8 13 -19 22t-28 17h235zM777 996l-6 -8q-35 -47 -56 -66q-32 -29 -74 -39q-15 -4 -34 -4q-47 0 -143 40.5t-133 40.5q-11 0 -26.5 -2.5t-31.5 -13.5
q-26 -18 -59 -66l-8 -12l-51 36l6 11q29 45 57 70q36 32 78 39q18 3 36 3q56 0 149 -40t129 -40q14 0 21 1t18 7q24 11 40 29q18 25 30 40l5 7z" />
    <glyph glyph-name="Ograve" unicode="&#xd2;" 
d="M944 387q0 -162 -115 -281q-124 -128 -317 -128q-212 0 -344 122.5t-132 306.5q0 172 113 296q123 135 319 135q237 0 365 -142q111 -124 111 -309zM805 404q0 142 -74 235q-86 108 -245 108q-143 0 -229 -108q-78 -98 -78 -240q0 -145 90.5 -240.5t230.5 -95.5
q136 0 224 108q81 100 81 233zM651 870l-332 100l66 91z" />
    <glyph glyph-name="Oacute" unicode="&#xd3;" 
d="M938 387q0 -162 -115 -281q-124 -128 -317 -128q-212 0 -344 122.5t-132 306.5q0 172 113 296q123 135 319 135q237 0 365 -142q111 -124 111 -309zM799 404q0 142 -74 235q-86 108 -245 108q-143 0 -229 -108q-78 -98 -78 -240q0 -145 90.5 -240.5t230.5 -95.5
q136 0 224 108q81 100 81 233zM642 976l-332 -100l266 191z" />
    <glyph glyph-name="Ocircumflex" unicode="&#xd4;" 
d="M944 387q0 -162 -115 -281q-124 -128 -317 -128q-212 0 -344 122.5t-132 306.5q0 172 113 296q123 135 319 135q237 0 365 -142q111 -124 111 -309zM805 404q0 142 -74 235q-86 108 -245 108q-143 0 -229 -108q-78 -98 -78 -240q0 -145 90.5 -240.5t230.5 -95.5
q136 0 224 108q81 100 81 233zM693 876q-32 0 -45.5 2.5t-43 13.5t-66.5 31q-27 15 -45 28q-17 -14 -53 -33q-44 -24 -77.5 -32t-72.5 -8l203 188z" />
    <glyph glyph-name="Otilde" unicode="&#xd5;" 
d="M944 387q0 -162 -115 -281q-124 -128 -317 -128q-212 0 -344 122.5t-132 306.5q0 172 113 296q123 135 319 135q237 0 365 -142q111 -124 111 -309zM805 404q0 142 -74 235q-86 108 -245 108q-143 0 -229 -108q-78 -98 -78 -240q0 -145 90.5 -240.5t230.5 -95.5
q136 0 224 108q81 100 81 233zM790 993l-6 -8q-35 -47 -56 -66q-32 -29 -74 -39q-15 -4 -34 -4q-47 0 -143 40.5t-133 40.5q-11 0 -26.5 -2.5t-31.5 -13.5q-26 -18 -59 -66l-8 -12l-51 36l6 11q29 45 57 70q36 32 78 39q18 3 36 3q56 0 149 -40t129 -40q14 0 21 1t18 7
q24 11 40 29q18 25 30 40l5 7z" />
    <glyph glyph-name="Odieresis" unicode="&#xd6;" 
d="M385 1033q32 -6 48.5 -27.5t16.5 -48.5q0 -31 -21 -55t-55 -24q-10 0 -16 1q-32 6 -48.5 27.5t-16.5 48.5q0 31 21 55t55 24q10 0 16 -1zM612 1034q34 -5 51.5 -27t17.5 -51q0 -33 -21 -57.5t-58 -24.5q-8 0 -13 1q-34 5 -51.5 27t-17.5 51q0 33 21 57.5t58 24.5
q8 0 13 -1zM940 387q0 -162 -115 -281q-124 -128 -317 -128q-212 0 -344 122.5t-132 306.5q0 172 113 296q123 135 319 135q237 0 365 -142q111 -124 111 -309zM801 404q0 142 -74 235q-86 108 -245 108q-143 0 -229 -108q-78 -98 -78 -240q0 -145 90.5 -240.5t230.5 -95.5
q136 0 224 108q81 100 81 233z" />
    <glyph glyph-name="Oslash" unicode="&#xd8;" 
d="M944 387q0 -162 -115 -281q-124 -128 -317 -128q-75 0 -138 16l-30 -78h-90l40 104q-121 52 -189.5 154.5t-68.5 232.5q0 172 113 296q123 135 319 135q77 0 140 -15l31 80h92l-41 -106q127 -54 194 -171q60 -105 60 -239zM574 737q-39 10 -88 10q-143 0 -229 -108
q-78 -98 -78 -240q0 -94 40 -170t110 -120zM805 404q0 96 -35 172q-39 85 -116 130l-247 -630q42 -13 93 -13q136 0 224 108q81 100 81 233z" />
    <glyph glyph-name="Ugrave" unicode="&#xd9;" horiz-adv-x="834" 
d="M807 0h-191v80q-41 -43 -98.5 -70.5t-126.5 -27.5q-136 0 -214 61q-93 73 -93 224v450q0 19 -6.5 40t-16.5 34q-13 18 -35 27h242q-13 -6 -20 -11.5t-18 -19.5q-7 -9 -12.5 -31t-5.5 -33v-431q0 -110 53 -167q50 -54 139 -54h17q7 1 11 1q80 8 132.5 55.5t52.5 111.5v451
q0 33 -2 50t-14 40q-7 14 -15 22t-24 16h239q-21 -11 -28 -18t-15 -22t-11.5 -36t-3.5 -43v-13l1 -567q0 -30 4.5 -47.5t15.5 -39.5q7 -12 18 -20q5 -4 25 -12zM586 868l-332 100l66 91z" />
    <glyph glyph-name="Uacute" unicode="&#xda;" horiz-adv-x="834" 
d="M807 0h-191v80q-41 -43 -98.5 -70.5t-126.5 -27.5q-136 0 -214 61q-93 73 -93 224v450q0 19 -6.5 40t-16.5 34q-13 18 -35 27h242q-13 -6 -20 -11.5t-18 -19.5q-7 -9 -12.5 -31t-5.5 -33v-431q0 -110 53 -167q50 -54 139 -54h17q7 1 11 1q80 8 132.5 55.5t52.5 111.5v451
q0 33 -2 50t-14 40q-7 14 -15 22t-24 16h239q-21 -11 -28 -18t-15 -22t-11.5 -36t-3.5 -43v-13l1 -567q0 -30 4.5 -47.5t15.5 -39.5q7 -12 18 -20q5 -4 25 -12zM583 973l-332 -100l266 191z" />
    <glyph glyph-name="Ucircumflex" unicode="&#xdb;" horiz-adv-x="834" 
d="M807 0h-191v80q-41 -43 -98.5 -70.5t-126.5 -27.5q-136 0 -214 61q-93 73 -93 224v450q0 19 -6.5 40t-16.5 34q-13 18 -35 27h242q-13 -6 -20 -11.5t-18 -19.5q-7 -9 -12.5 -31t-5.5 -33v-431q0 -110 53 -167q50 -54 139 -54h17q7 1 11 1q80 8 132.5 55.5t52.5 111.5v451
q0 33 -2 50t-14 40q-7 14 -15 22t-24 16h239q-21 -11 -28 -18t-15 -22t-11.5 -36t-3.5 -43v-13l1 -567q0 -30 4.5 -47.5t15.5 -39.5q7 -12 18 -20q5 -4 25 -12zM621 875q-32 0 -45.5 2.5t-43 13.5t-66.5 31q-27 15 -45 28q-17 -14 -53 -33q-44 -24 -77.5 -32t-72.5 -8
l203 188z" />
    <glyph glyph-name="Udieresis" unicode="&#xdc;" horiz-adv-x="835" 
d="M322 1034q32 -6 48.5 -27.5t16.5 -48.5q0 -31 -21 -55t-55 -24q-10 0 -16 1q-32 6 -48.5 27.5t-16.5 48.5q0 31 21 55t55 24q10 0 16 -1zM549 1035q34 -5 51.5 -27t17.5 -51q0 -33 -21 -57.5t-58 -24.5q-8 0 -13 1q-34 5 -51.5 27t-17.5 51q0 33 21 57.5t58 24.5
q8 0 13 -1zM807 7h-191v80q-41 -43 -98.5 -70.5t-126.5 -27.5q-136 0 -214 61q-93 73 -93 224v450q0 19 -6.5 40t-16.5 34q-13 18 -35 27h242q-13 -6 -20 -11.5t-18 -19.5q-7 -9 -12.5 -31t-5.5 -33v-431q0 -110 53 -167q50 -54 139 -54h17q7 1 11 1q80 8 132.5 55.5
t52.5 111.5v451q0 33 -2 50t-14 40q-7 14 -15 22t-24 16h239q-21 -11 -28 -18t-15 -22t-11.5 -36t-3.5 -43v-13l1 -567q0 -30 4.5 -47.5t15.5 -39.5q7 -12 18 -20q5 -4 25 -12z" />
    <glyph glyph-name="germandbls" unicode="&#xdf;" horiz-adv-x="674" 
d="M591 335q25 -37 37.5 -75.5t12.5 -72.5q0 -68 -41.5 -120t-104.5 -71q-37 -11 -82 -11q-81 0 -133 36l-34 116l36 -23q59 -38 128 -38q49 0 79 23q34 26 34 76q0 83 -68 143q-33 29 -126 78q-69 36 -69 61q0 3 2 10.5t111 108.5q44 41 44 83q-1 7 -1 11q-4 40 -33.5 63.5
t-71.5 23.5q-48 0 -80.5 -36.5t-32.5 -86.5v-504v-18q0 -24 3 -39.5t14 -37.5q7 -13 16 -20t24 -15l-229 -2q18 8 27.5 15t18 25t11 38t2.5 25v19v368h-46l52 88l-1 31q0 99 56.5 164.5t145.5 65.5q113 0 174 -45.5t61 -124.5q0 -15 -1 -22q-6 -56 -73 -102.5t-67 -58.5
q0 -5 115 -73q64 -38 90 -76z" />
    <glyph glyph-name="agrave" unicode="&#xe0;" horiz-adv-x="649" 
d="M621 62l-49 -86q-10 -1 -36 2.5t-50 11.5q-34 13 -56 39q-25 29 -25 65l1 207q-29 -10 -58 -19.5t-56 -15.5q-81 -16 -110 -46q-22 -22 -22 -63t38 -70t95 -29q34 0 70 12l22 8l-74 -99l-46 -3q-102 0 -168 57q-60 52 -60 117q0 77 41.5 114.5t138.5 60.5q60 11 120 23
q69 21 69 69q0 5 -2 17q-6 29 -37.5 46.5t-80.5 17.5q-64 0 -137 -33l-31 -14l85 124l15 1q37 5 76 5q41 0 76 -6.5t71 -26t58.5 -61.5t22.5 -92l-1 -230v-19q0 -22 5 -38t20 -25q36 -22 63 -22q8 0 12 1zM490 649l-332 100l66 91z" />
    <glyph glyph-name="aacute" unicode="&#xe1;" horiz-adv-x="646" 
d="M612 62l-49 -86q-10 -1 -36 2.5t-50 11.5q-34 13 -56 39q-25 29 -25 65l1 207q-29 -10 -58 -19.5t-56 -15.5q-81 -16 -110 -46q-22 -22 -22 -63t38 -70t95 -29q34 0 70 12l22 8l-74 -99l-46 -3q-102 0 -168 57q-60 52 -60 117q0 77 41.5 114.5t138.5 60.5q60 11 120 23
q69 21 69 69q0 5 -2 17q-6 29 -37.5 46.5t-80.5 17.5q-64 0 -137 -33l-31 -14l85 124l15 1q37 5 76 5q41 0 76 -6.5t71 -26t58.5 -61.5t22.5 -92l-1 -230v-19q0 -22 5 -38t20 -25q36 -22 63 -22q8 0 12 1zM473 749l-332 -100l266 191z" />
    <glyph glyph-name="acircumflex" unicode="&#xe2;" horiz-adv-x="642" 
d="M617 57l-49 -86q-10 -1 -36 2.5t-50 11.5q-34 13 -56 39q-25 29 -25 65l1 207q-29 -10 -58 -19.5t-56 -15.5q-81 -16 -110 -46q-22 -22 -22 -63t38 -70t95 -29q34 0 70 12l22 8l-74 -99l-46 -3q-102 0 -168 57q-60 52 -60 117q0 77 41.5 114.5t138.5 60.5q60 11 120 23
q69 21 69 69q0 5 -2 17q-6 29 -37.5 46.5t-80.5 17.5q-64 0 -137 -33l-31 -14l85 124l15 1q37 5 76 5q41 0 76 -6.5t71 -26t58.5 -61.5t22.5 -92l-1 -230v-19q0 -22 5 -38t20 -25q36 -22 63 -22q8 0 12 1zM522 648q-32 0 -45.5 2.5t-43 13.5t-66.5 31q-27 15 -45 28
q-17 -14 -53 -33q-44 -24 -77.5 -32t-72.5 -8l203 188z" />
    <glyph glyph-name="atilde" unicode="&#xe3;" horiz-adv-x="656" 
d="M617 62l-49 -86q-10 -1 -36 2.5t-50 11.5q-34 13 -56 39q-25 29 -25 65l1 207q-29 -10 -58 -19.5t-56 -15.5q-81 -16 -110 -46q-22 -22 -22 -63t38 -70t95 -29q34 0 70 12l22 8l-74 -99l-46 -3q-102 0 -168 57q-60 52 -60 117q0 77 41.5 114.5t138.5 60.5q60 11 120 23
q69 21 69 69q0 5 -2 17q-6 29 -37.5 46.5t-80.5 17.5q-64 0 -137 -33l-31 -14l85 124l15 1q37 5 76 5q41 0 76 -6.5t71 -26t58.5 -61.5t22.5 -92l-1 -230v-19q0 -22 5 -38t20 -25q36 -22 63 -22q8 0 12 1zM639 775l-6 -8q-35 -47 -56 -66q-32 -29 -74 -39q-15 -4 -34 -4
q-47 0 -143 40.5t-133 40.5q-11 0 -26.5 -2.5t-31.5 -13.5q-26 -18 -59 -66l-8 -12l-51 36l6 11q29 45 57 70q36 32 78 39q18 3 36 3q56 0 149 -40t129 -40q14 0 21 1t18 7q24 11 40 29q18 25 30 40l5 7z" />
    <glyph glyph-name="adieresis" unicode="&#xe4;" horiz-adv-x="644" 
d="M621 62l-49 -86q-10 -1 -36 2.5t-50 11.5q-34 13 -56 39q-25 29 -25 65l1 207q-29 -10 -58 -19.5t-56 -15.5q-81 -16 -110 -46q-22 -22 -22 -63t38 -70t95 -29q34 0 70 12l22 8l-74 -99l-46 -3q-102 0 -168 57q-60 52 -60 117q0 77 41.5 114.5t138.5 60.5q60 11 120 23
q69 21 69 69q0 5 -2 17q-6 29 -37.5 46.5t-80.5 17.5q-64 0 -137 -33l-31 -14l85 124l15 1q37 5 76 5q41 0 76 -6.5t71 -26t58.5 -61.5t22.5 -92l-1 -230v-19q0 -22 5 -38t20 -25q36 -22 63 -22q8 0 12 1zM232 804q32 -6 48.5 -27.5t16.5 -48.5q0 -31 -21 -55t-55 -24
q-10 0 -16 1q-32 6 -48.5 27.5t-16.5 48.5q0 31 21 55t55 24q10 0 16 -1zM459 805q34 -5 51.5 -27t17.5 -51q0 -33 -21 -57.5t-58 -24.5q-8 0 -13 1q-34 5 -51.5 27t-17.5 51q0 33 21 57.5t58 24.5q8 0 13 -1z" />
    <glyph glyph-name="aring" unicode="&#xe5;" horiz-adv-x="650" 
d="M331 871q53 0 82 -32.5t29 -77.5q0 -47 -30.5 -81.5t-85.5 -34.5q-53 0 -81.5 32t-28.5 78q0 47 30.5 81.5t84.5 34.5zM329 687q33 0 51 20t18 49t-19 50.5t-53 21.5q-33 0 -51 -20t-18 -49t19 -50.5t53 -21.5zM617 62l-49 -86q-10 -1 -36 2.5t-50 11.5q-34 13 -56 39
q-25 29 -25 65l1 207q-29 -10 -58 -19.5t-56 -15.5q-81 -16 -110 -46q-22 -22 -22 -63t38 -70t95 -29q34 0 70 12l22 8l-74 -99l-46 -3q-102 0 -168 57q-60 52 -60 117q0 77 41.5 114.5t138.5 60.5q60 11 120 23q69 21 69 69q0 5 -2 17q-6 29 -37.5 46.5t-80.5 17.5
q-64 0 -137 -33l-31 -14l85 124l15 1q37 5 76 5q41 0 76 -6.5t71 -26t58.5 -61.5t22.5 -92l-1 -230v-19q0 -22 5 -38t20 -25q36 -22 63 -22q8 0 12 1z" />
    <glyph glyph-name="ae" unicode="&#xe6;" horiz-adv-x="1035" 
d="M995 306h-454q0 -101 57 -165q67 -75 196 -75q42 0 83.5 10.5t81.5 34.5l35 21l-61 -116l-22 -8q-47 -17 -78 -21t-66 -4q-155 0 -260 78.5t-105 179.5v60q-29 -10 -58.5 -20t-54.5 -15q-81 -16 -110 -46q-22 -22 -22 -63t37 -70t95 -29q15 0 31.5 1.5t39.5 10.5l21 8
l-73 -99l-46 -3q-102 0 -168 57q-60 52 -60 117q0 76 43 116q40 36 137 59q60 12 120 25q66 23 66 84q0 31 -33 47.5t-85 16.5q-34 0 -65.5 -7.5t-71.5 -25.5l-30 -14l85 124l14 1q10 0 36 2.5t34 2.5q138 0 204 -79q57 50 107 69.5t121 19.5q110 0 201 -80q78 -69 78 -179
v-26zM866 381q-16 65 -56 95.5t-100 30.5q-62 0 -106.5 -32t-59.5 -93z" />
    <glyph glyph-name="ccedilla" unicode="&#xe7;" horiz-adv-x="630" 
d="M601 125l-63 -116l-16 -9q-42 -21 -109 -21h-48h-11q-16 0 -37 3l-21 -53l7 2q11 4 28 4q21 0 40.5 -7.5t30.5 -23.5q16 -22 16 -49q0 -30 -19 -50.5t-43.5 -29.5t-50.5 -9q-31 0 -63.5 10.5t-62.5 28.5l-5 3l39 50q4 -9 43 -26q26 -11 42 -11q8 0 11 1q12 4 22.5 12.5
t10.5 19.5q0 20 -10.5 28t-27.5 8q-26 0 -30 -7l-37 47l25 64q-27 7 -49 17t-49 28q-69 46 -104 111q-31 58 -31 125q0 58 22.5 113t60.5 94q54 56 139 82q68 21 148 21q38 0 60 -2.5t52 -9.5l9 -2v-131l-12 10q-28 26 -67 40.5t-78 14.5q-61 0 -109.5 -28t-72.5 -82
t-24 -102q0 -94 81 -169q29 -27 74 -44t97 -17q39 0 78.5 10.5t80.5 33.5z" />
    <glyph glyph-name="egrave" unicode="&#xe8;" horiz-adv-x="658" 
d="M621 132l-61 -116l-23 -8q-37 -13 -75 -18.5t-83 -5.5q-148 0 -249.5 87t-101.5 223t89 216.5t227 80.5q111 0 192 -72q85 -76 85 -187v-26h-454q0 -104 57 -166q68 -74 209 -74q78 0 153 45zM492 381q-16 64 -56 95t-100 31q-62 0 -106 -32t-59 -93zM494 649l-332 100
l66 91z" />
    <glyph glyph-name="eacute" unicode="&#xe9;" horiz-adv-x="673" 
d="M626 132l-61 -116l-23 -8q-37 -13 -75 -18.5t-83 -5.5q-148 0 -249.5 87t-101.5 223t89 216.5t227 80.5q111 0 192 -72q85 -76 85 -187v-26h-454q0 -104 57 -166q68 -74 209 -74q78 0 153 45zM497 381q-16 64 -56 95t-100 31q-62 0 -106 -32t-59 -93zM509 745l-332 -100
l266 191z" />
    <glyph glyph-name="ecircumflex" unicode="&#xea;" horiz-adv-x="662" 
d="M626 132l-61 -116l-23 -8q-37 -13 -75 -18.5t-83 -5.5q-148 0 -249.5 87t-101.5 223t89 216.5t227 80.5q111 0 192 -72q85 -76 85 -187v-26h-454q0 -104 57 -166q68 -74 209 -74q78 0 153 45zM497 381q-16 64 -56 95t-100 31q-62 0 -106 -32t-59 -93zM553 648
q-32 0 -45.5 2.5t-43 13.5t-66.5 31q-27 15 -45 28q-17 -14 -53 -33q-44 -24 -77.5 -32t-72.5 -8l203 188z" />
    <glyph glyph-name="edieresis" unicode="&#xeb;" horiz-adv-x="663" 
d="M251 808q32 -6 48.5 -27.5t16.5 -48.5q0 -31 -21 -55t-55 -24q-10 0 -16 1q-32 6 -48.5 27.5t-16.5 48.5q0 31 21 55t55 24q10 0 16 -1zM478 809q34 -5 51.5 -27t17.5 -51q0 -33 -21 -57.5t-58 -24.5q-8 0 -13 1q-34 5 -51.5 27t-17.5 51q0 33 21 57.5t58 24.5q8 0 13 -1
zM626 132l-61 -116l-23 -8q-37 -13 -75 -18.5t-83 -5.5q-148 0 -249.5 87t-101.5 223t89 216.5t227 80.5q111 0 192 -72q85 -76 85 -187v-26h-454q0 -104 57 -166q68 -74 209 -74q78 0 153 45zM497 381q-16 64 -56 95t-100 31q-62 0 -106 -32t-59 -93z" />
    <glyph glyph-name="igrave" unicode="&#xec;" horiz-adv-x="350" 
d="M288 0h-214q10 5 19 14q4 4 14.5 16.5t13.5 24.5t3 33v389q0 26 -1.5 38t-12.5 28.5t-34 28.5h95q16 0 34.5 6t32.5 16v-502q0 -28 1 -33q2 -7 10 -20.5t19 -24t20 -14.5zM340 649l-332 100l66 91z" />
    <glyph glyph-name="iacute" unicode="&#xed;" horiz-adv-x="344" 
d="M289 0h-214q7 4 12.5 9t20.5 21q9 12 13 26t4 32v389q0 26 -1.5 37t-11.5 27q-13 20 -35 31h95q15 0 33.5 5.5t33.5 16.5l-1 -502q0 -20 1.5 -30t9.5 -23.5t19 -24t21 -14.5zM362 750l-332 -100l266 191z" />
    <glyph glyph-name="icircumflex" unicode="&#xee;" horiz-adv-x="350" 
d="M280 0h-213q7 4 12.5 9t20.5 21q9 12 13 26t4 32v389q0 30 -3 41t-11 23q-11 19 -34 31h94q16 0 34.5 5.5t33.5 16.5l-1 -502q0 -20 1.5 -30t9.5 -23.5t19 -24t20 -14.5zM369 645q-32 0 -45.5 2.5t-43 13.5t-66.5 31q-27 15 -45 28q-17 -14 -53 -33q-44 -24 -77.5 -32
t-72.5 -8l203 188z" />
    <glyph glyph-name="idieresis" unicode="&#xef;" horiz-adv-x="346" 
d="M298 0h-214q10 5 19 14q4 4 14.5 16.5t13.5 24.5t3 33v389q0 26 -1.5 38t-12.5 28.5t-34 28.5h95q16 0 34.5 6t32.5 16v-502q0 -28 1 -33q2 -7 10 -20.5t19 -24t20 -14.5zM79 805q32 -6 48.5 -27.5t16.5 -48.5q0 -31 -21 -55t-55 -24q-10 0 -16 1q-32 6 -48.5 27.5
t-16.5 48.5q0 31 21 55t55 24q10 0 16 -1zM306 806q34 -5 51.5 -27t17.5 -51q0 -33 -21 -57.5t-58 -24.5q-8 0 -13 1q-34 5 -51.5 27t-17.5 51q0 33 21 57.5t58 24.5q8 0 13 -1z" />
    <glyph glyph-name="ntilde" unicode="&#xf1;" horiz-adv-x="689" 
d="M640 0h-213q13 6 20.5 13t17 21.5t11 27t1.5 39.5v241q0 73 -30 115q-35 49 -107 49q-78 0 -112 -45q-28 -37 -28 -105v-249q0 -17 0.5 -33.5t7.5 -31t16.5 -24t27.5 -18.5h-218q18 8 27 15t17.5 23t10 30t1.5 46l-1 356q0 36 -3 48.5t-11.5 24t-15.5 16.5t-19 11h103
q18 0 31.5 6t25.5 18l-1 -81q28 34 80 55.5t108 21.5q19 0 39 -3q78 -12 121 -66t43 -130l1 -286q0 -32 2 -45t13 -29q7 -9 12 -14q10 -10 22 -17zM657 777l-6 -8q-35 -47 -56 -66q-32 -29 -74 -39q-15 -4 -34 -4q-47 0 -143 40.5t-133 40.5q-11 0 -26.5 -2.5t-31.5 -13.5
q-26 -18 -59 -66l-8 -12l-51 36l6 11q29 45 57 70q36 32 78 39q18 3 36 3q56 0 149 -40t129 -40q14 0 21 1t18 7q24 11 40 29q18 25 30 40l5 7z" />
    <glyph glyph-name="ograve" unicode="&#xf2;" horiz-adv-x="696" 
d="M665 288q0 -124 -85 -212q-90 -93 -228 -93q-145 0 -231.5 85.5t-86.5 215.5q0 127 81 211q88 91 237 91q146 0 234 -96q79 -86 79 -202zM541 285q0 85 -48 148q-54 71 -141 71q-89 0 -143 -60t-54 -148q0 -104 52.5 -168.5t144.5 -64.5t143 67q46 61 46 155zM505 649
l-332 100l66 91z" />
    <glyph glyph-name="oacute" unicode="&#xf3;" horiz-adv-x="696" 
d="M666 288q0 -124 -85 -212q-90 -93 -228 -93q-145 0 -231.5 85.5t-86.5 215.5q0 127 81 211q88 91 237 91q146 0 234 -96q79 -86 79 -202zM542 285q0 85 -48 148q-54 71 -141 71q-89 0 -143 -60t-54 -148q0 -104 52.5 -168.5t144.5 -64.5t143 67q46 61 46 155zM519 750
l-332 -100l266 191z" />
    <glyph glyph-name="ocircumflex" unicode="&#xf4;" horiz-adv-x="692" 
d="M661 294q0 -123 -85 -212q-89 -93 -226 -93q-143 0 -229.5 85.5t-86.5 215.5q0 127 80 211q87 91 236 91q145 0 233 -96q78 -85 78 -202zM538 291q0 85 -48 148q-54 71 -140 71q-88 0 -142 -60t-54 -148q0 -104 52 -168.5t144 -64.5t142 67q46 61 46 155zM553 648
q-32 0 -45.5 2.5t-43 13.5t-66.5 31q-27 15 -45 28q-17 -14 -53 -33q-44 -24 -77.5 -32t-72.5 -8l203 188z" />
    <glyph glyph-name="otilde" unicode="&#xf5;" horiz-adv-x="697" 
d="M664 288q0 -124 -85 -212q-90 -93 -228 -93q-145 0 -231.5 85.5t-86.5 215.5q0 127 81 211q88 91 237 91q146 0 234 -96q79 -86 79 -202zM540 285q0 85 -48 148q-54 71 -141 71q-89 0 -143 -60t-54 -148q0 -104 52.5 -168.5t144.5 -64.5t143 67q46 61 46 155zM675 776
l-6 -8q-35 -47 -56 -66q-32 -29 -74 -39q-15 -4 -34 -4q-47 0 -143 40.5t-133 40.5q-11 0 -26.5 -2.5t-31.5 -13.5q-26 -18 -59 -66l-8 -12l-51 36l6 11q29 45 57 70q36 32 78 39q18 3 36 3q56 0 149 -40t129 -40q14 0 21 1t18 7q24 11 40 29q18 25 30 40l5 7z" />
    <glyph glyph-name="odieresis" unicode="&#xf6;" horiz-adv-x="701" 
d="M666 288q0 -124 -85 -212q-90 -93 -228 -93q-145 0 -231.5 85.5t-86.5 215.5q0 127 81 211q88 91 237 91q146 0 234 -96q79 -86 79 -202zM542 285q0 85 -48 148q-54 71 -141 71q-89 0 -143 -60t-54 -148q0 -104 52.5 -168.5t144.5 -64.5t143 67q46 61 46 155zM270 809
q32 -6 48.5 -27.5t16.5 -48.5q0 -31 -21 -55t-55 -24q-10 0 -16 1q-32 6 -48.5 27.5t-16.5 48.5q0 31 21 55t55 24q10 0 16 -1zM497 810q34 -5 51.5 -27t17.5 -51q0 -33 -21 -57.5t-58 -24.5q-8 0 -13 1q-34 5 -51.5 27t-17.5 51q0 33 21 57.5t58 24.5q8 0 13 -1z" />
    <glyph glyph-name="divide" unicode="&#xf7;" horiz-adv-x="730" 
d="M364 482q32 0 50 -20t18 -49q0 -28 -19 -50t-52 -22t-51 20t-18 49t19 50.5t53 21.5zM691 206h-654v71h654v-71zM364 141q32 0 50 -20t18 -49q0 -28 -19 -50t-52 -22t-51 20t-18 49t19 50.5t53 21.5z" />
    <glyph glyph-name="oslash" unicode="&#xf8;" horiz-adv-x="704" 
d="M671 288q0 -124 -85 -212q-90 -93 -228 -93q-67 0 -124 20l-31 -53h-69l45 79q-66 40 -102.5 106.5t-36.5 148.5q0 127 81 211q88 91 237 91q70 0 127 -23l26 46h70l-42 -74q64 -42 98 -108.5t34 -138.5zM439 484q-35 20 -81 20q-89 0 -143 -60t-54 -148q0 -119 66 -183z
M547 285q0 43 -15.5 86.5t-43.5 74.5l-211 -367q38 -16 81 -16q92 0 143 67q46 61 46 155z" />
    <glyph glyph-name="ugrave" unicode="&#xf9;" horiz-adv-x="674" 
d="M644 0h-166v83q-30 -48 -73 -72q-51 -28 -130 -28q-85 7 -136 64q-56 62 -56 168l1 259v16q0 14 -6 37q-2 8 -18 23t-31 20h93h16q14 0 26.5 3.5t18.5 6.5q4 2 15 9v-351q0 -81 37 -121q30 -32 85 -39q6 -1 19 -1q62 0 100 49t38 116l1 209v11q0 28 -1.5 41t-9 27.5
t-19 24t-22.5 15.5h86h25q16 0 26 3t16 6q2 1 15 8v-483v-37q2 -17 12 -34q7 -10 18.5 -20t19.5 -13zM503 649l-332 100l66 91z" />
    <glyph glyph-name="uacute" unicode="&#xfa;" horiz-adv-x="662" 
d="M630 0h-166v83q-30 -48 -73 -72q-51 -28 -130 -28q-85 7 -136 64q-56 62 -56 168l1 259v16q0 14 -6 37q-2 8 -18 23t-31 20h93h16q14 0 26.5 3.5t18.5 6.5q4 2 15 9v-351q0 -81 37 -121q30 -32 85 -39q6 -1 19 -1q62 0 100 49t38 116l1 209v11q0 28 -1.5 41t-9 27.5
t-19 24t-22.5 15.5h86h25q16 0 26 3t16 6q2 1 15 8v-483v-37q2 -17 12 -34q7 -10 18.5 -20t19.5 -13zM518 750l-332 -100l266 191z" />
    <glyph glyph-name="ucircumflex" unicode="&#xfb;" horiz-adv-x="671" 
d="M644 0h-166v83q-30 -48 -73 -72q-51 -28 -130 -28q-85 7 -136 64q-56 62 -56 168l1 259v16q0 14 -6 37q-2 8 -18 23t-31 20h93h16q14 0 26.5 3.5t18.5 6.5q4 2 15 9v-351q0 -81 37 -121q30 -32 85 -39q6 -1 19 -1q62 0 100 49t38 116l1 209v11q0 28 -1.5 41t-9 27.5
t-19 24t-22.5 15.5h86h25q16 0 26 3t16 6q2 1 15 8v-483v-37q2 -17 12 -34q7 -10 18.5 -20t19.5 -13zM555 648q-32 0 -45.5 2.5t-43 13.5t-66.5 31q-27 15 -45 28q-17 -14 -53 -33q-44 -24 -77.5 -32t-72.5 -8l203 188z" />
    <glyph glyph-name="udieresis" unicode="&#xfc;" horiz-adv-x="669" 
d="M644 0h-166v83q-30 -48 -73 -72q-51 -28 -130 -28q-85 7 -136 64q-56 62 -56 168l1 259v16q0 14 -6 37q-2 8 -18 23t-31 20h93h16q14 0 26.5 3.5t18.5 6.5q4 2 15 9v-351q0 -81 37 -121q30 -32 85 -39q6 -1 19 -1q62 0 100 49t38 116l1 209v11q0 28 -1.5 41t-9 27.5
t-19 24t-22.5 15.5h86h25q16 0 26 3t16 6q2 1 15 8v-483v-37q2 -17 12 -34q7 -10 18.5 -20t19.5 -13zM246 808q32 -6 48.5 -27.5t16.5 -48.5q0 -31 -21 -55t-55 -24q-10 0 -16 1q-32 6 -48.5 27.5t-16.5 48.5q0 31 21 55t55 24q10 0 16 -1zM473 809q34 -5 51.5 -27t17.5 -51
q0 -33 -21 -57.5t-58 -24.5q-8 0 -13 1q-34 5 -51.5 27t-17.5 51q0 33 21 57.5t58 24.5q8 0 13 -1z" />
    <glyph glyph-name="ydieresis" unicode="&#xff;" horiz-adv-x="720" 
d="M291 809q32 -6 48.5 -27.5t16.5 -48.5q0 -31 -21 -55t-55 -24q-10 0 -16 1q-32 6 -48.5 27.5t-16.5 48.5q0 31 21 55t55 24q10 0 16 -1zM518 810q34 -5 51.5 -27t17.5 -51q0 -33 -21 -57.5t-58 -24.5q-8 0 -13 1q-34 5 -51.5 27t-17.5 51q0 33 21 57.5t58 24.5q8 0 13 -1
zM685 576l-272 -641q-26 -61 -73 -108q-59 -58 -129 -70q-38 -6 -69 -6q-34 0 -63.5 8t-63.5 28l105 77q33 -30 75 -30q40 0 72 31q27 26 44 67l33 83q-16 14 -31 34q-8 11 -14 20.5t-10 18.5l-188 411q-5 12 -14 25.5t-22 24t-17 13.5q-10 8 -24 14h118q12 0 19 -2
q2 0 18 -8q19 -6 31 -34l187 -418l139 354q10 25 10 50q0 5 -2 17.5t-20 27.5q-13 11 -19 13h180z" />
    <glyph glyph-name="OE" unicode="&#x152;" horiz-adv-x="1350" 
d="M1309 170l-59 -170l-593 -1q-24 -8 -65 -14t-85 -6q-192 0 -329 116q-142 120 -142 301q0 190 124.5 317.5t311.5 127.5q50 0 89 -8q42 -12 59 -16h533q13 0 21 2l17 7v-151l-25 23q-20 17 -60 24.5t-85 7.5q-29 0 -58 -3t-40 -5l-10 -2v-231h158q25 0 33 3l16 6v-139
q-5 7 -10 13q-8 10 -16 14q-16 9 -45 12t-53 3h-83v-295q8 -3 66 -10t112 -7q31 0 52 2t39 9q51 18 71 29t56 41zM805 410q0 144 -88 240.5t-231 96.5q-141 0 -228 -107q-79 -97 -79 -236q0 -135 84 -233q93 -108 239 -108q137 0 223 108q80 100 80 239z" />
    <glyph glyph-name="oe" unicode="&#x153;" horiz-adv-x="1196" 
d="M1141 132l-61 -116l-23 -8q-36 -13 -77 -19t-81 -6q-88 0 -162 32.5t-124 93.5q-42 -59 -107.5 -92.5t-147.5 -33.5q-145 0 -231.5 85.5t-86.5 215.5q0 127 81 211q88 91 237 91q81 0 143.5 -30t103.5 -81q42 54 109.5 82.5t149.5 28.5q112 0 192 -69q85 -73 85 -185v-26
h-454q0 -105 57 -167q68 -74 209 -74q76 0 153 46zM1012 381q-16 64 -55 92.5t-101 28.5q-64 0 -107 -29.5t-58 -90.5zM547 285q0 85 -48 148q-54 71 -141 71q-89 0 -143 -60t-54 -148q0 -104 52.5 -168.5t144.5 -64.5t143 67q46 61 46 155z" />
    <glyph glyph-name="Ydieresis" unicode="&#x178;" horiz-adv-x="810" 
d="M780 818l-306 -460v-224q0 -33 2.5 -52t20.5 -43q8 -10 18 -19q14 -13 27 -20h-253q14 8 24 17t18.5 24t11 34t2.5 44v19l1 219l-221 355q-16 29 -25.5 41.5t-22.5 24.5q-18 18 -28 25.5t-24 14.5h13h110q16 0 25 -2t23 -8t21 -12.5t18 -24.5l193 -312l159 238
q6 10 12 27.5t6 35.5v9q-3 18 -24 35q-7 6 -24 14h223zM308 998q32 -6 48.5 -27.5t16.5 -48.5q0 -31 -21 -55t-55 -24q-10 0 -16 1q-32 6 -48.5 27.5t-16.5 48.5q0 31 21 55t55 24q10 0 16 -1zM535 999q34 -5 51.5 -27t17.5 -51q0 -33 -21 -57.5t-58 -24.5q-8 0 -13 1
q-34 5 -51.5 27t-17.5 51q0 33 21 57.5t58 24.5q8 0 13 -1z" />
    <glyph glyph-name="florin" unicode="&#x192;" horiz-adv-x="457" 
d="M421 806q-16 -44 -62 -44q-12 0 -23.5 11.5t-15.5 13.5q-6 3 -11 3q-24 0 -36 -92q-18 -145 -22 -161l-6 -24h118l-6 -49h-125l-73 -359q-16 -81 -35 -143q-30 -96 -68 -154q-47 -72 -103 -72h-16q-8 3 -11 4q-14 4 -24 16t-10 28q0 3 2 11q6 21 20 32.5t35 11.5
q16 0 25 -15.5t16 -17.5q25 -8 45 44q7 19 44 200l83 415h-131l3 49h146l7 32q36 174 88 253q41 63 92 63q20 0 38 -14t18 -32q0 -4 -2 -10z" />
    <glyph glyph-name="summation" unicode="&#x3a3;" horiz-adv-x="882" 
d="M857 134q-23 -68 -35 -139q-6 -34 -10 -65t-4 -63l-86 17h-694l430 472l-422 527l79 -8h656l2 -193h-26q0 65 -44 106q-23 20 -50.5 26t-68.5 6h-355l341 -411l-365 -409h487q41 0 81 28q52 40 58 106h26z" />
    <glyph glyph-name="Omega" unicode="&#x3a9;" horiz-adv-x="985" 
d="M948 -1h-383l19 189q91 41 136 121t45 186q0 134 -50 200q-64 85 -222 85q-147 0 -217 -84q-61 -73 -61 -201q0 -108 44.5 -186.5t137.5 -120.5l18 -189h-383v200h25q0 -28 12 -45.5t28.5 -25t39.5 -7.5h210v39q-125 21 -202.5 114.5t-77.5 222.5q0 152 121 239
q115 83 303 83q197 0 309.5 -84t112.5 -238q0 -128 -77 -222t-203 -115v-39h210q23 0 39.5 7.5t29 26t12.5 44.5h24v-200z" />
    <glyph glyph-name="pi" unicode="&#x3c0;" horiz-adv-x="670" 
d="M640 184l-4 -25q-8 -66 -48.5 -112.5t-101.5 -46.5q-54 0 -80 56q-21 45 -21 119q0 26 3 50l27 250h-136l-47 -370q-5 -43 -24 -75q-22 -37 -53 -37q-10 0 -15 2q-28 8 -37 17t-11.5 19.5t-2.5 22.5q0 22 17 42q54 63 55 65q4 10 9 22q9 20 11 36l27 252h-38
q-14 0 -27 -0.5t-30.5 -7t-35 -27.5t-21.5 -34l-20 8l8 17q26 61 34 73q21 35 57 53t76 18h421v-96h-153l-15 -279q0 -39 20 -68.5t56 -29.5q27 0 46.5 18.5t25.5 48.5l5 19h23z" />
    <glyph glyph-name="endash" unicode="&#x2013;" horiz-adv-x="556" 
d="M524 386l-78 -88q-12 -12 -22 -16.5t-22 -4.5h-15h-75.5t-89.5 1q-45 0 -85 -0.5t-54 -3.5l-50 -12l78 88q8 10 16 13q12 7 22 7q2 1 77.5 0t128.5 -1h24h16h14h11q39 0 53 3z" />
    <glyph glyph-name="emdash" unicode="&#x2014;" horiz-adv-x="885" 
d="M850 384l-78 -89q-9 -9 -18 -14t-20 -5h-16l-376 1q-86 0 -164 -0.5t-94.5 -3.5t-29.5 -7t-22 -7l78 88q9 11 19 16t25 5h47.5t54.5 1l331 -1h24.5h16.5h34h27h22h18h14h12q40 0 45 3z" />
    <glyph glyph-name="quoteleft" unicode="&#x2018;" horiz-adv-x="222" 
d="M189 655q0 -33 -21.5 -50.5t-51.5 -17.5q-42 0 -62 29q-16 22 -16 53q0 27 11.5 56t34.5 59q18 26 27 36q14 17 24 21q19 6 44 -14l-13 -13q-54 -57 -54 -85q0 -8 6 -8q37 -9 50 -20q21 -18 21 -46z" />
    <glyph glyph-name="quoteright" unicode="&#x2019;" horiz-adv-x="218" 
d="M169 813q16 -22 16 -52q0 -28 -11.5 -57t-34.5 -59q-19 -26 -27 -35q-15 -18 -24 -21q-19 -6 -44 14l13 13q54 56 54 85q0 6 -6 8q-31 4 -51 21t-20 45q0 32 21 50t51 18q40 0 63 -30z" />
    <glyph glyph-name="quotesinglbase" unicode="&#x201a;" horiz-adv-x="218" 
d="M169 97q16 -22 16 -52q0 -28 -11.5 -57t-34.5 -59q-19 -26 -27 -35q-15 -18 -24 -21q-19 -6 -44 14l13 13q54 56 54 85q0 6 -6 8q-31 4 -51 21t-20 45q0 32 21 50t51 18q40 0 63 -30z" />
    <glyph glyph-name="quotedblleft" unicode="&#x201c;" horiz-adv-x="424" 
d="M186 657q0 -32 -21 -50t-52 -18q-39 0 -62 30q-17 25 -17 53q0 26 13 56.5t33 58.5q15 22 27 35q16 18 23 20.5t12 2.5q16 0 33 -15l-12 -13q-54 -57 -54 -85q0 -7 6 -9q33 -5 50 -19q21 -18 21 -47zM391 657q0 -32 -21 -50t-51 -18q-41 0 -62 30q-17 25 -17 53
q0 25 13 55.5t32 57.5t28 37q14 17 24 21q19 6 44 -14l-13 -13q-26 -26 -39.5 -48.5t-13.5 -35.5q0 -7 6 -9q31 -9 37 -12q33 -18 33 -54z" />
    <glyph glyph-name="quotedblright" unicode="&#x201d;" horiz-adv-x="423" 
d="M367 814q17 -23 17 -53q0 -26 -12.5 -56.5t-32.5 -57.5t-28 -36q-15 -18 -24 -21q-19 -6 -44 14l13 13q26 26 39.5 48.5t13.5 35.5q0 7 -6 9q-31 4 -50.5 21t-19.5 45q0 32 21 50t51 18q41 0 62 -30zM166 812q16 -22 16 -52q0 -27 -11.5 -56t-34.5 -59q-19 -26 -27 -35
q-15 -18 -22.5 -20.5t-12.5 -2.5q-15 0 -33 15l13 13q54 57 54 85q0 7 -6 9q-32 4 -50 19q-21 18 -21 47q0 31 21 49t50 18q41 0 64 -30z" />
    <glyph glyph-name="quotedblbase" unicode="&#x201e;" horiz-adv-x="420" 
d="M361 97q16 -22 16 -52q0 -28 -11.5 -57t-34.5 -59q-19 -26 -27 -35q-15 -18 -24 -21q-19 -6 -44 14l13 13q54 56 54 85q0 6 -6 8q-31 4 -51 21t-20 45q0 32 21 50t51 18q40 0 63 -30zM169 97q16 -22 16 -52q0 -28 -11.5 -57t-34.5 -59q-19 -26 -27 -35q-15 -18 -24 -21
q-19 -6 -44 14l13 13q54 56 54 85q0 6 -6 8q-31 4 -51 21t-20 45q0 32 21 50t51 18q40 0 63 -30z" />
    <glyph glyph-name="dagger" unicode="&#x2020;" horiz-adv-x="661" 
d="M617 397l-45 18q-41 11 -81 11h-112v-480q0 -41 12 -81q5 -16 7.5 -23t10.5 -22h-161l18 45q12 40 12 81v480h-113q-25 0 -37.5 -2.5t-45.5 -11.5q-18 -6 -25.5 -9t-19.5 -9v161q9 -5 19 -9.5t26 -8.5q40 -12 81 -12h114v167q0 41 -12 81l-18 45h161q-5 -9 -10 -21
t-8 -24q-12 -40 -12 -81v-165h113q41 0 81 13q8 2 17 5q2 1 28 13v-161z" />
    <glyph glyph-name="bullet" unicode="&#x2022;" horiz-adv-x="300" 
d="M154 307q-52 0 -81.5 33.5t-29.5 77.5t27.5 75t78.5 31q52 0 83 -35q28 -32 28 -77q0 -43 -26 -72q-29 -33 -80 -33z" />
    <glyph glyph-name="ellipsis" unicode="&#x2026;" horiz-adv-x="776" 
d="M659 142q36 0 56 -22t20 -53t-21 -55t-58 -24q-36 0 -56 22t-20 53t21 55t58 24zM385 142q36 0 56 -22t20 -53t-21 -55t-58 -24q-36 0 -56 22t-20 53t21 55t58 24zM110 142q36 0 56 -22t20 -54q0 -31 -21 -55t-58 -24q-36 0 -56 22t-20 54q0 31 21 55t58 24z" />
    <glyph glyph-name="trademark" unicode="&#x2122;" horiz-adv-x="955" 
d="M370 801l-4 -96h-17l-5 37q0 12 -6 19t-15 7l-92 2v-325q0 -15 6 -22t15.5 -8.5t17.5 -1.5l13 -1v-17h-8q-3 0 -29 1.5t-43 2.5q-16 0 -43 -2t-30 -2h-9v18l16 1q21 0 29.5 9.5t8.5 21.5v325l-91 -4q-10 -1 -12 -3q-5 -7 -6 -16l-7 -42h-17l-3 95h9q5 -1 54 -2t102 -1
l155 3zM916 781h-8q-11 0 -23 -1.5t-16 -6.5q-8 -11 -8 -25v-303q0 -13 6 -20.5t16 -9t18 -2.5l13 -1v-17h-9q-3 0 -29 1.5t-42 2.5q-16 0 -43 -2t-30 -2h-10v18l17 1q21 0 29 8.5t8 22.5v282l-159 -338h-11l-159 337v-281q0 -14 8 -23q5 -5 17 -7t15 -2l14 -1v-17h-9
q-3 0 -29 1.5t-43 2.5q-9 0 -21.5 -1.5t-26.5 -2.5h-10v18l17 1q9 0 16 1.5t12 6.5q9 9 9 23v303q0 12 -1 15q-4 6 -7 10q-4 5 -16.5 6.5t-23.5 1.5h-6v18h10l39 -3l56 3h7l152 -322l59 123q14 28 46 94q17 36 25 53l17 42l3 10h9l49 -3l46 3h7v-18z" />
    <glyph glyph-name="partialdiff" unicode="&#x2202;" horiz-adv-x="577" 
d="M542 455q0 -172 -71 -310q-80 -156 -204 -156q-13 0 -19 1q-102 10 -158 71t-56 154q0 101 65.5 176t162.5 75q41 0 73.5 -13t71.5 -41l34 -24l9 57q6 35 6 72q0 115 -48 195q-55 91 -150 91q-27 0 -55.5 -9.5l-55.5 -18.5l-21 -6l-43 53l49 15q30 8 54 12t53 4
q138 0 224 -126q79 -115 79 -272zM432 345l-31 30q-33 32 -75 41q-14 3 -26 3q-55 0 -100 -49q-40 -44 -59 -110q-10 -34 -10 -75q0 -59 24 -102.5t75 -59.5q18 -5 31 -5q60 0 104 81q33 62 51 158z" />
    <glyph glyph-name="Delta" unicode="&#x2206;" horiz-adv-x="793" 
d="M761 0h-733l392 821zM616 53l-242 573l-270 -573h512z" />
    <glyph glyph-name="product" unicode="&#x220f;" horiz-adv-x="1023" 
d="M981 -141h-374v23l30 1q24 0 39.5 3.5t27.5 16t15.5 25.5t3.5 30v26v791h-438v-783q0 -36 5 -55.5t26 -35.5q14 -11 29 -13.5t40 -2.5h24v-26h-374v27h29q24 0 38.5 2.5t27.5 13.5q19 15 23 34.5t4 56.5v713q0 53 -38 85q-28 23 -58 27l-20 1v25h940v-26l-27 -2
q-14 0 -24.5 -3.5t-32.5 -21t-29.5 -42.5t-7.5 -61v-706q0 -37 6 -52.5t19.5 -28t28.5 -17t39 -4.5l28 -1v-20z" />
    <glyph glyph-name="radical" unicode="&#x221a;" horiz-adv-x="608" 
d="M592 1015l-165 -1017l-271 537l-103 -53l-17 36l159 75l218 -429l142 856z" />
    <glyph glyph-name="infinity" unicode="&#x221e;" horiz-adv-x="875" 
d="M839 283q0 -78 -49.5 -126.5t-115.5 -48.5q-44 0 -92.5 20t-89.5 59l-52 49l-52 -49q-39 -37 -89.5 -58t-93.5 -21q-65 0 -113 47q-51 50 -51 128q0 68 49 114t118 46q41 0 84.5 -19.5t82.5 -55.5l64 -58l66 58q41 36 82.5 55.5t83.5 19.5q69 0 118.5 -46.5t49.5 -113.5z
M781 278q0 45 -32.5 74.5t-81.5 29.5q-39 0 -73 -20q-14 -8 -41 -29l-77 -58l72 -67q27 -25 53.5 -35t64.5 -10q51 0 83 33t32 82zM404 275l-77 58q-33 25 -53 35q-29 14 -61 14q-48 0 -81 -29t-33 -75q0 -48 31.5 -81.5t83.5 -33.5q37 0 64 10t54 35z" />
    <glyph glyph-name="integral" unicode="&#x222b;" horiz-adv-x="368" 
d="M335 946q-2 -19 -16.5 -31.5t-34.5 -12.5q-12 0 -23 9q-17 13 -22 16q-3 2 -9 2q-11 0 -15 -15.5t-4 -43.5q0 -32 8 -117t8 -120v-371q0 -138 -18 -225q-30 -144 -105 -144q-11 0 -27 4t-30 19t-14 33q0 20 13.5 33.5t32.5 13.5q13 0 22 -9q23 -24 27 -25
q20 -5 27.5 24.5t7.5 82.5q0 24 -1.5 59.5t-2.5 78.5v515q0 115 19 183q27 96 91 96q27 0 48.5 -16t17.5 -39z" />
    <glyph glyph-name="approxequal" unicode="&#x2248;" horiz-adv-x="706" 
d="M677 419l-24 -27q-59 -69 -146 -69q-31 0 -61 9t-59 19l-97 27q-2 1 -29 9t-49 8q-10 0 -31 -4.5t-40 -15.5t-39 -32l-20 -21l-51 32l17 18q32 34 61.5 50t75.5 24q20 3 36 3q21 0 45 -5q10 -2 48 -13l86 -26q25 -8 52 -16t52 -8q63 0 105 45l21 22zM677 230l-24 -27
q-60 -69 -146 -69q-31 0 -61 9t-59 19l-97 27q-2 1 -29 9t-49 8q-10 0 -30.5 -4t-40 -15.5t-39.5 -32.5l-20 -21l-51 32l17 18q32 34 61.5 50t75.5 24q20 3 36 3q21 0 45 -5q10 -2 48 -13l86 -26q25 -8 52 -16t52 -8q36 3 59.5 12.5t45.5 32.5l21 22z" />
    <glyph glyph-name="notequal" unicode="&#x2260;" horiz-adv-x="726" 
d="M691 164h-376l-113 -200l-59 35l90 165h-194v69h234l96 173h-330v68h369l114 204l61 -35l-96 -170l204 1v-69h-241l-97 -172h338v-69z" />
    <glyph glyph-name="lessequal" unicode="&#x2264;" horiz-adv-x="700" 
d="M655 719l-537 -246l534 -245v-71l-615 285v64l618 285v-72zM654 0h-611v75h611v-75z" />
    <glyph glyph-name="greaterequal" unicode="&#x2265;" horiz-adv-x="693" 
d="M658 442l-615 -285v71l534 245l-537 246v72l618 -285v-64zM651 0h-611v75h611v-75z" />
    <glyph glyph-name="lozenge" unicode="&#x25ca;" horiz-adv-x="562" 
d="M529 412l-213 -412h-70l-217 418l217 400h70zM465 412l-185 345l-185 -341l187 -366z" />
    </font>
</defs>
</svg>
